<svg xmlns:xlink="http://www.w3.org/1999/xlink" xmlns="http://www.w3.org/2000/svg" viewBox="0 0 24 24" fill="#fff" role="img" aria-hidden="true" class="gamut-1ka764h-Svg eol2zvm0" width="24"  height="24" ><title>Add Bold Icon</title><mask id="AddBoldIcon-mask-29" fill="#FFFFFF"><path d="M0 12a1.5 1.5 0 001.5 1.5h8.75a.25.25 0 01.25.25v8.75a1.5 1.5 0 003 0v-8.75a.25.25 0 01.25-.25h8.75a1.5 1.5 0 000-3h-8.75a.25.25 0 01-.25-.25V1.5a1.5 1.5 0 00-3 0v8.75a.25.25 0 01-.25.25H1.5A1.5 1.5 0 000 12z" fill="#FFFFFF"></path></mask><g mask="url(#AddBoldIcon-mask-29)" fill="#FFFFFF"><rect width="100%" height="100%" fill="#FFF0E5"></rect></g></svg>