<svg width="424" height="427" viewBox="0 0 424 427" fill="none" xmlns="http://www.w3.org/2000/svg">
<path d="M211.248 143.19L179.008 128.56L143.288 112.38L151.928 98.16L176.278 58.09L210.978 1L211.068 46.85L211.128 77.96L211.198 118.25L211.248 143.19Z" fill="#3A10E5" stroke="#0E1631" stroke-linejoin="round"/>
<path d="M211.678 371.41L36.0579 288.8L66.1579 239.27L205.598 302.5C207.488 303.36 209.518 303.81 211.548 303.84L211.688 371.42L211.678 371.41Z" fill="#3A10E5" stroke="#0E1631" stroke-linejoin="round"/>
<path d="M279.518 112.72L244.578 128.56L211.788 143.43L211.248 143.19L211.198 118.25L211.128 77.96L211.068 46.85L210.978 1L245.658 57.54L270.298 97.69L279.518 112.72Z" fill="#66C4FF" stroke="#0E1631" stroke-linejoin="round"/>
<path d="M341.368 213.54L211.788 272.3L211.488 272.16L211.308 174.96C211.478 174.97 211.628 174.97 211.788 174.97C213.908 174.97 216.028 174.52 217.998 173.62L246.148 160.86L286.128 142.74L295.368 138.55L301.048 147.84L325.698 188L341.378 213.55L341.368 213.54Z" fill="#66C4FF" stroke="#0E1631" stroke-linejoin="round"/>
<path d="M387.528 288.8L211.778 371.46L211.678 371.41L211.538 303.83H211.778C213.898 303.83 216.018 303.38 217.988 302.49L357.198 239.35L387.528 288.79V288.8Z" fill="#66C4FF" stroke="#0E1631" stroke-linejoin="round"/>
<path d="M387.528 288.8L211.788 425.59L211.678 371.41L211.788 371.46L387.528 288.8Z" fill="#3A10E5" stroke="#0E1631" stroke-linejoin="round"/>
<path d="M211.788 425.59L36.0579 288.8L211.678 371.41L211.788 425.59Z" fill="#10162F" stroke="#10162F"/>
<path d="M413.758 213.72L357.208 239.36L217.998 302.5C216.028 303.39 213.908 303.84 211.788 303.84H211.548C209.518 303.81 207.488 303.36 205.598 302.5L66.1579 239.27L9.82787 213.72C4.21787 211.18 0.717868 205.47 1.01787 199.31C1.31787 193.15 5.34787 187.81 11.1779 185.81L121.518 148.18L97.1679 188.23L56.7879 202.01L81.8879 213.39L211.478 272.17L211.778 272.31L341.358 213.55L366.788 202.02L325.688 188L301.038 147.84L412.398 185.82C418.228 187.82 422.258 193.15 422.558 199.32C422.858 205.48 419.358 211.19 413.748 213.73L413.758 213.72Z" fill="#FF8C00" stroke="#0E1631" stroke-linejoin="round"/>
<path d="M341.438 117.65L295.358 138.54L286.118 142.73L246.138 160.85L217.988 173.61C216.018 174.51 213.898 174.96 211.778 174.96C211.608 174.96 211.458 174.96 211.298 174.95C209.358 174.89 207.408 174.44 205.588 173.61L177.438 160.85L137.458 142.73L127.558 138.24L82.1379 117.65C76.5279 115.09 73.0279 109.38 73.3279 103.24C73.6279 97.08 77.6579 91.73 83.4879 89.74L176.258 58.09L151.908 98.16L129.098 105.95L143.268 112.38L178.988 128.57L211.228 143.19L211.768 143.43L244.558 128.57L279.498 112.73L294.448 105.95L270.268 97.7L245.638 57.54L340.068 89.75C345.898 91.73 349.928 97.08 350.228 103.25C350.528 109.4 347.028 115.11 341.418 117.66L341.438 117.65Z" fill="#F966FF" stroke="#0E1631"/>
<path d="M211.488 272.17L81.8979 213.39L97.1779 188.23L121.528 148.18L127.568 138.25L137.468 142.74L177.448 160.86L205.598 173.62C207.418 174.45 209.368 174.9 211.308 174.96L211.488 272.17Z" fill="#3A10E5" stroke="#0E1631" stroke-linejoin="round"/>
</svg>
