<svg width="382" height="386" viewBox="0 0 382 386" fill="none" xmlns="http://www.w3.org/2000/svg">
<path d="M190.653 129.262L161.571 116.065L129.35 101.47L137.144 88.6429L159.109 52.4978L190.41 1L190.491 42.3588L190.545 70.4215L190.608 106.765L190.653 129.262Z" fill="#3A10E5" stroke="#0E1631" stroke-linejoin="round"/>
<path d="M191.041 335.127L32.6238 260.609L59.7754 215.931L185.557 272.967C187.262 273.743 189.093 274.149 190.924 274.176L191.05 335.136L191.041 335.127Z" fill="#3A10E5" stroke="#0E1631" stroke-linejoin="round"/>
<path d="M252.236 101.777L220.719 116.065L191.141 129.479L190.653 129.262L190.608 106.765L190.545 70.4215L190.491 42.3588L190.41 1L221.693 52.0017L243.919 88.2189L252.236 101.777Z" fill="#66C4FF" stroke="#0E1631" stroke-linejoin="round"/>
<path d="M308.028 192.721L191.14 245.725L190.87 245.599L190.708 157.92C190.861 157.929 190.996 157.929 191.14 157.929C193.053 157.929 194.965 157.523 196.742 156.711L222.135 145.201L258.199 128.856L266.534 125.076L271.657 133.456L293.893 169.682L308.037 192.73L308.028 192.721Z" fill="#66C4FF" stroke="#0E1631" stroke-linejoin="round"/>
<path d="M349.666 260.609L191.131 335.172L191.041 335.127L190.915 274.167H191.131C193.044 274.167 194.956 273.761 196.733 272.958L322.307 216.003L349.666 260.6V260.609Z" fill="#66C4FF" stroke="#0E1631" stroke-linejoin="round"/>
<path d="M349.666 260.608L191.14 383.999L191.041 335.126L191.14 335.172L349.666 260.608Z" fill="#3A10E5" stroke="#0E1631" stroke-linejoin="round"/>
<path d="M191.14 383.999L32.6238 260.608L191.041 335.126L191.14 383.999Z" fill="#10162F" stroke="#10162F"/>
<path d="M373.327 192.884L322.316 216.012L196.742 272.968C194.965 273.77 193.053 274.176 191.141 274.176H190.924C189.093 274.149 187.262 273.743 185.557 272.968L59.7754 215.931L8.96315 192.884C3.90267 190.593 0.745504 185.442 1.01612 179.885C1.28673 174.329 4.92198 169.512 10.1809 167.708L109.713 133.764L87.7479 169.891L51.3233 182.321L73.9646 192.586L190.861 245.609L191.131 245.735L308.019 192.731L330.958 182.33L293.884 169.683L271.648 133.457L372.1 167.717C377.359 169.521 380.994 174.329 381.265 179.894C381.535 185.451 378.378 190.602 373.318 192.893L373.327 192.884Z" fill="#FF8C00" stroke="#0E1631" stroke-linejoin="round"/>
<path d="M308.091 106.224L266.525 125.068L258.19 128.847L222.126 145.192L196.733 156.703C194.956 157.514 193.044 157.92 191.131 157.92C190.978 157.92 190.843 157.92 190.698 157.911C188.949 157.857 187.19 157.451 185.548 156.703L160.155 145.192L124.091 128.847L115.161 124.797L74.1901 106.224C69.1297 103.915 65.9725 98.764 66.2431 93.2255C66.5137 87.6689 70.149 82.8429 75.4079 81.0479L159.091 52.4981L137.126 88.6431L116.55 95.67L129.332 101.47L161.553 116.074L190.635 129.262L191.122 129.479L220.701 116.074L252.218 101.786L265.704 95.67L243.892 88.2281L221.675 52.002L306.855 81.0569C312.114 82.8429 315.749 87.6689 316.02 93.2345C316.29 98.7821 313.133 103.933 308.073 106.233L308.091 106.224Z" fill="#F966FF" stroke="#0E1631"/>
<path d="M190.87 245.608L73.9737 192.585L87.757 169.89L109.722 133.763L115.17 124.806L124.1 128.856L160.164 145.201L185.557 156.711C187.199 157.46 188.958 157.866 190.708 157.92L190.87 245.608Z" fill="#3A10E5" stroke="#0E1631" stroke-linejoin="round"/>
</svg>
