<svg width="494" height="498" viewBox="0 0 494 498" fill="none" xmlns="http://www.w3.org/2000/svg">
<path d="M246.37 166.943L208.744 149.869L167.057 130.986L177.14 114.391L205.558 67.6269L246.055 1L246.16 54.5093L246.23 90.8162L246.311 137.837L246.37 166.943Z" fill="#3A10E5" stroke="#0E1631" stroke-linejoin="round"/>
<path d="M246.872 433.286L41.9143 336.876L77.0425 279.072L239.776 352.865C241.982 353.869 244.351 354.394 246.72 354.429L246.883 433.298L246.872 433.286Z" fill="#3A10E5" stroke="#0E1631" stroke-linejoin="round"/>
<path d="M326.044 131.383L285.268 149.869L247 167.223L246.37 166.943L246.312 137.837L246.23 90.8162L246.16 54.5092L246.055 1L286.528 66.985L315.284 113.842L326.044 131.383Z" fill="#66C4FF" stroke="#0E1631" stroke-linejoin="round"/>
<path d="M398.226 249.045L247 317.621L246.65 317.458L246.44 204.021C246.638 204.032 246.813 204.032 247 204.032C249.474 204.032 251.948 203.507 254.247 202.457L287.1 187.565L333.759 166.418L344.542 161.528L351.171 172.37L379.939 219.239L398.238 249.057L398.226 249.045Z" fill="#66C4FF" stroke="#0E1631" stroke-linejoin="round"/>
<path d="M452.097 336.877L246.988 433.345L246.872 433.287L246.708 354.417H246.988C249.462 354.417 251.937 353.892 254.236 352.854L416.701 279.166L452.097 336.865V336.877Z" fill="#66C4FF" stroke="#0E1631" stroke-linejoin="round"/>
<path d="M452.097 336.877L247 496.518L246.872 433.287L247 433.345L452.097 336.877Z" fill="#3A10E5" stroke="#0E1631" stroke-linejoin="round"/>
<path d="M247 496.518L41.9143 336.877L246.872 433.287L247 496.518Z" fill="#10162F" stroke="#10162F"/>
<path d="M482.709 249.255L416.712 279.179L254.247 352.866C251.948 353.905 249.474 354.43 247 354.43H246.72C244.351 354.395 241.982 353.87 239.776 352.866L77.0425 279.074L11.3026 249.255C4.75541 246.291 0.670738 239.627 1.02085 232.438C1.37097 225.249 6.07418 219.017 12.8781 216.683L141.65 172.767L113.233 219.507L66.1072 235.589L95.4002 248.87L246.638 317.469L246.988 317.633L398.215 249.057L427.893 235.601L379.927 219.239L351.159 172.37L481.122 216.695C487.926 219.029 492.629 225.249 492.979 232.45C493.329 239.639 489.245 246.303 482.697 249.267L482.709 249.255Z" fill="#FF8C00" stroke="#0E1631" stroke-linejoin="round"/>
<path d="M398.308 137.137L344.53 161.516L333.747 166.406L287.088 187.553L254.236 202.445C251.937 203.495 249.463 204.02 246.988 204.02C246.79 204.02 246.615 204.02 246.428 204.009C244.164 203.939 241.888 203.414 239.764 202.445L206.912 187.553L160.253 166.406L148.699 161.166L95.692 137.137C89.1448 134.149 85.0601 127.485 85.4103 120.32C85.7604 113.131 90.4636 106.887 97.2675 104.564L205.535 67.6272L177.117 114.391L150.497 123.482L167.034 130.986L208.721 149.881L246.346 166.943L246.977 167.223L285.244 149.881L326.021 131.395L343.468 123.482L315.249 113.854L286.505 66.9854L396.709 104.576C403.513 106.887 408.216 113.131 408.566 120.331C408.917 127.509 404.832 134.172 398.285 137.148L398.308 137.137Z" fill="#F966FF" stroke="#0E1631"/>
<path d="M246.65 317.468L95.4119 248.869L113.244 219.506L141.662 172.766L148.711 161.177L160.265 166.417L206.924 187.564L239.776 202.455C241.9 203.424 244.176 203.949 246.44 204.019L246.65 317.468Z" fill="#3A10E5" stroke="#0E1631" stroke-linejoin="round"/>
</svg>
