<svg width="484" height="488" viewBox="0 0 484 488" fill="none" xmlns="http://www.w3.org/2000/svg">
<path d="M241.382 163.57L204.521 146.843L163.682 128.344L173.56 112.086L201.4 66.2726L241.074 1L241.177 53.4216L241.245 88.9906L241.325 135.055L241.382 163.57Z" fill="#3A10E5" stroke="#0E1631" stroke-linejoin="round"/>
<path d="M241.874 424.5L41.0826 330.05L75.4968 273.421L234.923 345.714C237.083 346.697 239.404 347.211 241.725 347.246L241.885 424.512L241.874 424.5Z" fill="#3A10E5" stroke="#0E1631" stroke-linejoin="round"/>
<path d="M319.437 128.733L279.489 146.843L242 163.844L241.382 163.57L241.325 135.055L241.245 88.9906L241.177 53.4216L241.074 1L280.724 65.6438L308.896 111.548L319.437 128.733Z" fill="#66C4FF" stroke="#0E1631" stroke-linejoin="round"/>
<path d="M390.152 244.003L242 311.185L241.657 311.025L241.451 199.893C241.645 199.905 241.817 199.905 242 199.905C244.424 199.905 246.848 199.39 249.1 198.361L281.285 183.772L326.995 163.055L337.559 158.265L344.053 168.886L372.236 214.802L390.164 244.014L390.152 244.003Z" fill="#66C4FF" stroke="#0E1631" stroke-linejoin="round"/>
<path d="M442.928 330.05L241.988 424.558L241.874 424.501L241.714 347.235H241.988C244.412 347.235 246.836 346.72 249.088 345.702L408.251 273.513L442.928 330.039V330.05Z" fill="#66C4FF" stroke="#0E1631" stroke-linejoin="round"/>
<path d="M442.928 330.05L242 486.446L241.874 424.5L242 424.557L442.928 330.05Z" fill="#3A10E5" stroke="#0E1631" stroke-linejoin="round"/>
<path d="M242 486.446L41.0826 330.05L241.874 424.5L242 486.446Z" fill="#10162F" stroke="#10162F"/>
<path d="M472.918 244.209L408.263 273.524L249.1 345.714C246.848 346.731 244.424 347.246 242 347.246H241.725C239.404 347.212 237.083 346.697 234.923 345.714L75.4969 273.421L11.0932 244.209C4.67908 241.305 0.677431 234.777 1.02043 227.734C1.36343 220.691 5.97104 214.586 12.6366 212.299L138.792 169.275L110.951 215.066L64.7839 230.821L93.4814 243.832L241.645 311.037L241.988 311.197L390.141 244.015L419.216 230.832L372.225 214.803L344.042 168.887L471.363 212.31C478.029 214.597 482.636 220.691 482.979 227.745C483.322 234.788 479.321 241.317 472.906 244.221L472.918 244.209Z" fill="#FF8C00" stroke="#0E1631" stroke-linejoin="round"/>
<path d="M390.233 134.369L337.548 158.253L326.984 163.044L281.273 183.761L249.089 198.35C246.836 199.379 244.412 199.893 241.989 199.893C241.794 199.893 241.623 199.893 241.44 199.882C239.222 199.813 236.992 199.299 234.911 198.35L202.727 183.761L157.016 163.044L145.697 157.91L93.7675 134.369C87.3534 131.442 83.3517 124.914 83.6947 117.894C84.0377 110.851 88.6454 104.734 95.311 102.459L201.378 66.2724L173.538 112.086L147.458 120.992L163.659 128.344L204.499 146.854L241.36 163.57L241.977 163.844L279.467 146.854L319.415 128.744L336.508 120.992L308.862 111.56L280.702 65.6436L388.666 102.47C395.332 104.734 399.939 110.851 400.282 117.905C400.625 124.937 396.624 131.465 390.21 134.38L390.233 134.369Z" fill="#F966FF" stroke="#0E1631"/>
<path d="M241.657 311.036L93.4928 243.832L110.963 215.065L138.803 169.275L145.709 157.922L157.028 163.055L202.738 183.773L234.923 198.361C237.003 199.31 239.233 199.825 241.451 199.893L241.657 311.036Z" fill="#3A10E5" stroke="#0E1631" stroke-linejoin="round"/>
</svg>
