<svg width="419" height="423" viewBox="0 0 419 423" fill="none" xmlns="http://www.w3.org/2000/svg">
<path d="M208.966 141.647L177.076 127.175L141.744 111.171L150.29 97.1054L174.375 57.4704L208.699 1L208.788 46.3524L208.847 77.1247L208.916 116.977L208.966 141.647Z" fill="#3A10E5" stroke="#0E1631" stroke-linejoin="round"/>
<path d="M209.391 367.389L35.6775 285.676L65.4508 236.684L203.377 299.227C205.247 300.078 207.255 300.523 209.263 300.553L209.401 367.399L209.391 367.389Z" fill="#3A10E5" stroke="#0E1631" stroke-linejoin="round"/>
<path d="M276.495 111.507L241.934 127.176L209.5 141.884L208.966 141.647L208.917 116.977L208.847 77.1247L208.788 46.3524L208.699 1L243.003 56.9263L267.375 96.6406L276.495 111.507Z" fill="#66C4FF" stroke="#0E1631" stroke-linejoin="round"/>
<path d="M337.673 211.234L209.5 269.356L209.203 269.217L209.025 173.072C209.193 173.082 209.342 173.082 209.5 173.082C211.597 173.082 213.694 172.637 215.642 171.747L243.487 159.125L283.033 141.202L292.173 137.058L297.791 146.247L322.173 185.971L337.683 211.244L337.673 211.234Z" fill="#66C4FF" stroke="#0E1631" stroke-linejoin="round"/>
<path d="M383.333 285.676L209.49 367.439L209.391 367.389L209.253 300.543H209.49C211.587 300.543 213.684 300.098 215.633 299.217L353.332 236.763L383.333 285.666V285.676Z" fill="#66C4FF" stroke="#0E1631" stroke-linejoin="round"/>
<path d="M383.332 285.676L209.5 420.981L209.391 367.389L209.5 367.439L383.332 285.676Z" fill="#3A10E5" stroke="#0E1631" stroke-linejoin="round"/>
<path d="M209.5 420.981L35.6775 285.676L209.391 367.389L209.5 420.981Z" fill="#10162F" stroke="#10162F"/>
<path d="M409.278 211.412L353.342 236.774L215.643 299.228C213.694 300.109 211.597 300.554 209.5 300.554H209.263C207.255 300.524 205.247 300.079 203.377 299.228L65.4507 236.685L9.73205 211.412C4.18294 208.9 0.720931 203.252 1.01767 197.158C1.31442 191.065 5.30068 185.783 11.0674 183.805L120.21 146.583L96.1241 186.199L56.1824 199.829L81.0099 211.086L209.193 269.228L209.49 269.366L337.664 211.244L362.818 199.839L322.164 185.971L297.781 146.247L407.933 183.815C413.699 185.793 417.686 191.065 417.982 197.168C418.279 203.261 414.817 208.909 409.268 211.422L409.278 211.412Z" fill="#FF8C00" stroke="#0E1631" stroke-linejoin="round"/>
<path d="M337.743 116.383L292.163 137.047L283.023 141.191L243.477 159.114L215.633 171.736C213.684 172.626 211.587 173.071 209.49 173.071C209.322 173.071 209.174 173.071 209.015 173.061C207.096 173.002 205.168 172.557 203.367 171.736L175.523 159.114L135.977 141.191L126.184 136.75L81.2573 116.383C75.7082 113.851 72.2462 108.203 72.5429 102.13C72.8397 96.0366 76.8259 90.7447 82.5927 88.7763L174.356 57.4698L150.27 97.1049L127.708 104.81L141.724 111.171L177.056 127.185L208.946 141.646L209.48 141.884L241.914 127.185L276.475 111.517L291.263 104.81L267.345 96.6499L242.983 56.9258L336.388 88.7862C342.154 90.7447 346.141 96.0366 346.437 102.14C346.734 108.223 343.272 113.871 337.723 116.393L337.743 116.383Z" fill="#F966FF" stroke="#0E1631"/>
<path d="M209.203 269.226L81.0198 211.084L96.1339 186.197L120.22 146.582L126.194 136.76L135.987 141.201L175.533 159.124L203.377 171.746C205.177 172.567 207.106 173.012 209.025 173.071L209.203 269.226Z" fill="#3A10E5" stroke="#0E1631" stroke-linejoin="round"/>
</svg>
