<svg xmlns:xlink="http://www.w3.org/1999/xlink" xmlns="http://www.w3.org/2000/svg" viewBox="0 0 24 24" fill="#fff" role="img" width="24"  height="24" ><title>Book Flip Page Icon</title><mask id="BookFlipPageIcon-mask-1418926" fill="#FFFFFF"><path d="M18 4.144a31.156 31.156 0 014.732-.394.517.517 0 01.366.144.5.5 0 01.152.356v15.768a.505.505 0 01-.5.5C14.457 20.621 12 23.25 12 23.25V6.482S9.545 3.856 1.268 3.75a.517.517 0 00-.368.144.5.5 0 00-.15.356v15.768a.505.505 0 00.5.5C9.543 20.621 12 23.25 12 23.25" fill="none" stroke="#FFFFFF" stroke-linecap="round" stroke-linejoin="round" stroke-width="1.5px"></path><path d="M12 22.757a6.035 6.035 0 011.636-3.448A8.228 8.228 0 0118 16.846V1.243a.481.481 0 00-.228-.4.6.6 0 00-.494-.066 7.8 7.8 0 00-3.642 2.277A6.035 6.035 0 0012 6.5" fill="none" stroke="#FFFFFF" stroke-linecap="round" stroke-linejoin="round" stroke-width="1.5px"></path></mask><g mask="url(#BookFlipPageIcon-mask-1418926)" fill="#FFFFFF"><rect width="100%" height="100%" fill="#10162F"></rect></g></svg>