<svg width="457" height="412" viewBox="0 0 457 412" fill="none" xmlns="http://www.w3.org/2000/svg">
<path d="M453.353 389.889H10.6472C9.19383 389.889 8 388.571 8 386.934V3.95435C8 2.33235 9.18085 1 10.6472 1H453.353C454.806 1 456 2.31786 456 3.95435V386.949C455.987 388.571 454.806 389.889 453.353 389.889Z" fill="white" stroke="#040E2C"/>
<path d="M299.688 130.327H268.839V161.176H299.688V130.327Z" fill="#66C4FF" stroke="#10162F"/>
<path d="M299.688 174.949H268.839V205.798H299.688V174.949Z" fill="#66C4FF" stroke="#10162F"/>
<path d="M299.688 219.924H268.839V250.773H299.688V219.924Z" fill="white" stroke="#040E2C"/>
<path d="M311 138H436" stroke="#10162F"/>
<path d="M311 153H436" stroke="#10162F"/>
<path d="M311 188H436" stroke="#10162F"/>
<path d="M311 202H436" stroke="#10162F"/>
<path d="M311 228H436" stroke="#10162F"/>
<path d="M311 244H436" stroke="#10162F"/>
<path d="M436 101H269V116H436V101Z" fill="#FFFAE5" stroke="#0E1631" stroke-miterlimit="10" stroke-linejoin="round"/>
<path d="M297.507 84.133C312.731 84.133 325.073 71.791 325.073 56.5665C325.073 41.3419 312.731 29 297.507 29C282.282 29 269.94 41.3419 269.94 56.5665C269.94 71.791 282.282 84.133 297.507 84.133Z" fill="#FFD300" stroke="#040E2C" stroke-linejoin="round"/>
<path d="M297.507 58.9193C302.757 58.9193 307.013 54.6633 307.013 49.4133C307.013 44.1632 302.757 39.9072 297.507 39.9072C292.257 39.9072 288 44.1632 288 49.4133C288 54.6633 292.257 58.9193 297.507 58.9193Z" fill="#10162F"/>
<path d="M297.507 84.1327C305.719 84.1327 313.076 80.5185 318.123 74.8192C315.161 66.2755 307.055 60.1377 297.507 60.1377C287.958 60.1377 279.852 66.2755 276.891 74.8192C281.938 80.5292 289.294 84.1327 297.507 84.1327Z" fill="#10162F"/>
<path d="M339 50H425" stroke="#040E2C"/>
<path d="M339 67H425" stroke="#040E2C"/>
<path d="M265 142.389L277.286 153.36L304.928 127.034" stroke="#10162F"/>
<path d="M265 187.577L277.286 198.548L304.928 172.222" stroke="#10162F"/>
<path d="M124.172 126.386C70.0724 126.386 26.2156 170.243 26.2156 224.342C26.2156 278.442 70.0724 322.299 124.172 322.299C178.272 322.299 222.129 278.442 222.129 224.342C222.129 170.243 178.272 126.386 124.172 126.386ZM124.172 306.674C78.6996 306.674 41.8406 269.815 41.8406 224.342C41.8406 178.87 78.6996 142.011 124.172 142.011C169.645 142.011 206.504 178.87 206.504 224.342C206.504 269.815 169.645 306.674 124.172 306.674Z" fill="#FFFAE5" stroke="#10162F"/>
<path d="M206.504 224.341C206.504 270.454 168.59 307.714 122.236 306.646C78.7264 305.644 43.1628 270.294 41.8941 226.798C41.5202 214.191 44.0042 202.199 48.7184 191.408C50.361 187.642 48.705 183.248 45.0325 181.405L44.9924 181.379C41.0394 179.402 36.1783 181.085 34.4021 185.145C28.9401 197.645 26.002 211.493 26.2558 226.063C27.1505 278.267 69.5116 320.962 121.702 322.257C176.937 323.633 222.156 279.269 222.156 224.327C222.156 173.045 182.746 130.965 132.559 126.718C128.045 126.331 124.199 129.963 124.199 134.49V134.53C124.199 138.617 127.364 141.942 131.424 142.303C173.491 145.989 206.504 181.312 206.504 224.341Z" fill="#66C4FF" stroke="#10162F"/>
<path d="M91.7736 246.632C88.9157 245.176 86.632 243.093 84.9226 240.395C83.2132 237.698 82.3585 234.533 82.3585 230.9C82.3585 227.708 83.0129 224.944 84.335 222.607C85.6571 220.27 87.5268 218.413 89.9573 217.038C88.2479 215.662 86.9258 213.98 85.991 212.003C85.0561 210.027 84.5887 207.85 84.5887 205.473C84.5887 202.615 85.2966 199.984 86.6988 197.58C88.101 195.19 90.0642 193.28 92.6016 191.838C95.1389 190.409 97.9968 189.688 101.189 189.688C104.38 189.688 107.238 190.409 109.776 191.838C112.313 193.267 114.276 195.176 115.679 197.58C117.081 199.971 117.789 202.602 117.789 205.473C117.789 207.837 117.321 210.013 116.386 212.003C115.451 213.98 114.103 215.662 112.34 217.038C114.757 218.413 116.64 220.27 118.002 222.607C119.351 224.944 120.032 227.708 120.032 230.9C120.032 234.533 119.177 237.698 117.468 240.395C115.759 243.093 113.475 245.176 110.617 246.632C107.759 248.088 104.621 248.822 101.202 248.822C97.7832 248.822 94.6448 248.088 91.7736 246.632ZM107.225 237.003C108.828 235.521 109.615 233.478 109.615 230.887C109.615 228.296 108.814 226.266 107.225 224.77C105.622 223.288 103.619 222.54 101.202 222.54C98.7848 222.54 96.7682 223.288 95.179 224.77C93.5764 226.253 92.7885 228.296 92.7885 230.887C92.7885 233.478 93.5898 235.507 95.179 237.003C96.7816 238.486 98.7848 239.233 101.202 239.233C103.619 239.233 105.622 238.486 107.225 237.003ZM106.223 210.948C107.492 209.599 108.12 207.823 108.12 205.62C108.12 203.47 107.492 201.733 106.223 200.411C104.955 199.089 103.272 198.435 101.189 198.435C99.0919 198.435 97.4226 199.089 96.1539 200.411C94.8852 201.733 94.2575 203.47 94.2575 205.62C94.2575 207.823 94.8852 209.599 96.1539 210.948C97.4226 212.297 99.0919 212.978 101.189 212.978C103.285 212.978 104.968 212.297 106.223 210.948Z" fill="#10162F"/>
<path d="M130.008 241.009C126.323 235.801 124.48 228.549 124.48 219.254C124.48 209.946 126.323 202.694 130.008 197.499C133.694 192.291 138.956 189.7 145.78 189.7C152.605 189.7 157.866 192.304 161.552 197.499C165.238 202.708 167.081 209.959 167.081 219.254C167.081 228.562 165.238 235.814 161.552 241.009C157.866 246.217 152.605 248.808 145.78 248.808C138.956 248.821 133.694 246.217 130.008 241.009ZM156.851 219.254C156.851 205.926 153.166 199.275 145.78 199.275C138.409 199.275 134.709 205.94 134.709 219.254C134.709 232.582 138.395 239.233 145.78 239.233C153.166 239.233 156.851 232.569 156.851 219.254Z" fill="#10162F"/>
<path d="M86.5118 263.591H161.832" stroke="#10162F"/>
<path d="M86.512 274.182H161.833" stroke="#10162F"/>
<path d="M432.285 410.857H100.715C98.6683 410.857 97 409.189 97 407.142V282.749C97 280.702 98.6683 279.034 100.715 279.034H432.285C434.332 279.034 436 280.702 436 282.749V407.142C436 409.203 434.332 410.857 432.285 410.857Z" fill="white" stroke="#10162F"/>
<path d="M290.859 348.668H211.972C208.243 348.668 205.229 345.654 205.229 341.925V339.836C205.229 336.107 208.243 333.093 211.972 333.093H290.859C294.588 333.093 297.602 336.107 297.602 339.836V341.925C297.602 345.64 294.588 348.668 290.859 348.668Z" fill="#FFD300" stroke="#10162F" stroke-linejoin="round"/>
<path d="M381.605 375.669H280.035C276.306 375.669 273.292 372.655 273.292 368.926V366.837C273.292 363.108 276.306 360.094 280.035 360.094H381.605C385.334 360.094 388.348 363.108 388.348 366.837V368.926C388.348 372.641 385.334 375.669 381.605 375.669Z" fill="#FFD300" stroke="#10162F" stroke-linejoin="round"/>
<path d="M260.955 375.669H211.958C208.229 375.669 205.215 372.655 205.215 368.926V366.837C205.215 363.108 208.229 360.094 211.958 360.094H260.955C264.685 360.094 267.699 363.108 267.699 366.837V368.926C267.699 372.641 264.685 375.669 260.955 375.669Z" fill="#FFD300" stroke="#10162F" stroke-linejoin="round"/>
<path d="M346.641 348.668H311.27C307.541 348.668 304.527 345.654 304.527 341.925V339.836C304.527 336.107 307.541 333.093 311.27 333.093H346.641C350.37 333.093 353.384 336.107 353.384 339.836V341.925C353.384 345.64 350.37 348.668 346.641 348.668Z" fill="#FFD300" stroke="#10162F" stroke-linejoin="round"/>
<path d="M401.344 348.668H365.974C362.245 348.668 359.23 345.654 359.23 341.925V339.836C359.23 336.107 362.245 333.093 365.974 333.093H401.344C405.073 333.093 408.088 336.107 408.088 339.836V341.925C408.088 345.64 405.073 348.668 401.344 348.668Z" fill="#FFD300" stroke="#10162F" stroke-linejoin="round"/>
<path d="M436 304.325H97V282.707C97 280.66 98.6683 278.992 100.715 278.992H432.285C434.332 278.992 436 280.66 436 282.707V304.325Z" fill="#FFD300" stroke="#10162F"/>
<path d="M154.535 389.309C172.707 389.309 187.438 374.578 187.438 356.406C187.438 338.234 172.707 323.503 154.535 323.503C136.363 323.503 121.632 338.234 121.632 356.406C121.632 374.578 136.363 389.309 154.535 389.309Z" fill="#FFFAE5" stroke="#10162F" stroke-linecap="round" stroke-linejoin="round"/>
<path d="M149.432 374.827L135.469 360.864L142.016 354.317L149.432 361.733L169.914 341.265L176.461 347.798L149.432 374.827Z" fill="#FFD300" stroke="#10162F" stroke-linejoin="round"/>
<path d="M127.514 402.636H23.0933C21.3817 402.636 20 401.254 20 399.542V369.712C20 368.001 21.3817 366.619 23.0933 366.619H127.514C129.225 366.619 130.607 368.001 130.607 369.712V399.542C130.607 401.254 129.225 402.636 127.514 402.636Z" fill="#10162F" stroke="#10162F" stroke-miterlimit="10"/>
<path d="M130.143 400.017H25.7224C24.0107 400.017 22.629 398.635 22.629 396.923V367.093C22.629 365.382 24.0107 364 25.7224 364H130.143C131.854 364 133.236 365.382 133.236 367.093V396.923C133.236 398.625 131.844 400.017 130.143 400.017Z" fill="#FFD300" stroke="#10162F" stroke-miterlimit="10"/>
<path d="M43.8785 387.721C42.9926 387.721 42.1728 387.517 41.4193 387.11C40.6759 386.692 40.0751 386.071 39.6168 385.246C39.1687 384.421 38.9447 383.423 38.9447 382.252C38.9447 381.081 39.1789 380.088 39.6474 379.274C40.1158 378.449 40.737 377.828 41.5109 377.41C42.2848 376.993 43.125 376.784 44.0313 376.784C45.182 376.784 46.1392 377.095 46.903 377.716C47.6667 378.327 48.1912 379.141 48.4763 380.16L46.6586 380.633C46.1087 379.289 45.2329 378.617 44.0313 378.617C43.125 378.617 42.3867 378.928 41.8164 379.549C41.2461 380.16 40.961 381.061 40.961 382.252C40.961 383.474 41.2411 384.386 41.8011 384.987C42.3612 385.587 43.0893 385.888 43.9855 385.888C44.7085 385.888 45.2686 385.689 45.6657 385.292C46.073 384.885 46.3124 384.406 46.3836 383.856H44.3979V382.207H48.3083V387.599H46.6433L46.4753 386.453C46.2411 386.82 45.905 387.125 45.4671 387.37C45.0394 387.604 44.5099 387.721 43.8785 387.721ZM57.283 384.36H51.9672C52.0487 384.931 52.2473 385.363 52.563 385.659C52.8888 385.954 53.3013 386.102 53.8002 386.102C54.2279 386.102 54.5844 386.005 54.8695 385.811C55.1648 385.618 55.4296 385.318 55.6638 384.91L57.1913 385.475C56.8756 386.198 56.4326 386.753 55.8624 387.14C55.3023 387.527 54.5793 387.721 53.6933 387.721C52.8583 387.721 52.1607 387.527 51.6006 387.14C51.0507 386.743 50.6434 386.244 50.3786 385.643C50.1241 385.032 49.9968 384.401 49.9968 383.749C49.9968 383.098 50.1241 382.471 50.3786 381.871C50.6434 381.26 51.0507 380.761 51.6006 380.374C52.1607 379.976 52.8583 379.778 53.6933 379.778C54.4978 379.778 55.1699 379.971 55.7096 380.358C56.2493 380.735 56.6465 381.214 56.9011 381.794C57.1557 382.375 57.283 382.97 57.283 383.581V384.36ZM55.343 382.863C55.2514 382.436 55.0681 382.084 54.7931 381.809C54.5284 381.534 54.1618 381.397 53.6933 381.397C53.286 381.397 52.9347 381.524 52.6393 381.779C52.344 382.023 52.1353 382.385 52.0131 382.863H55.343ZM62.0724 387.721C61.1864 387.721 60.494 387.482 59.995 387.003C59.496 386.524 59.2465 385.817 59.2465 384.88V381.519H58.0551V379.9H59.2465V377.975L61.1406 376.784V379.9H63.1722V381.519H61.1406V384.849C61.1406 385.307 61.2221 385.633 61.385 385.827C61.5581 386.01 61.8127 386.102 62.1488 386.102C62.4033 386.102 62.6477 386.041 62.882 385.918L63.3249 387.446C62.9278 387.629 62.5103 387.721 62.0724 387.721ZM70.3234 379.9V381.153C70.5983 380.715 70.9344 380.379 71.3315 380.144C71.7287 379.9 72.1513 379.778 72.5994 379.778C72.8845 379.778 73.1951 379.829 73.5311 379.931L73.1798 381.687C72.9456 381.545 72.6808 381.473 72.3855 381.473C71.7847 381.473 71.2908 381.748 70.9038 382.298C70.5169 382.838 70.3234 383.693 70.3234 384.864V387.599H68.4293V379.9H70.3234ZM81.2993 384.36H75.9836C76.0651 384.931 76.2636 385.363 76.5793 385.659C76.9052 385.954 77.3176 386.102 77.8166 386.102C78.2443 386.102 78.6007 386.005 78.8859 385.811C79.1812 385.618 79.4459 385.318 79.6802 384.91L81.2077 385.475C80.892 386.198 80.449 386.753 79.8787 387.14C79.3186 387.527 78.5956 387.721 77.7097 387.721C76.8746 387.721 76.1771 387.527 75.617 387.14C75.0671 386.743 74.6598 386.244 74.395 385.643C74.1404 385.032 74.0131 384.401 74.0131 383.749C74.0131 383.098 74.1404 382.471 74.395 381.871C74.6598 381.26 75.0671 380.761 75.617 380.374C76.1771 379.976 76.8746 379.778 77.7097 379.778C78.5142 379.778 79.1863 379.971 79.726 380.358C80.2657 380.735 80.6628 381.214 80.9174 381.794C81.172 382.375 81.2993 382.97 81.2993 383.581V384.36ZM79.3594 382.863C79.2677 382.436 79.0844 382.084 78.8095 381.809C78.5447 381.534 78.1781 381.397 77.7097 381.397C77.3023 381.397 76.951 381.524 76.6557 381.779C76.3604 382.023 76.1516 382.385 76.0294 382.863H79.3594ZM84.8973 379.9V380.236V380.694C85.0195 380.47 85.2486 380.262 85.5847 380.068C85.9309 379.875 86.3229 379.778 86.7608 379.778C87.8912 379.778 88.7568 380.139 89.3576 380.862C89.9686 381.575 90.2741 382.538 90.2741 383.749C90.2741 384.961 89.9686 385.929 89.3576 386.652C88.7568 387.364 87.8912 387.721 86.7608 387.721C86.3841 387.721 86.0225 387.639 85.6763 387.476C85.3301 387.313 85.0704 387.12 84.8973 386.896V387.354V390.715H83.0032V379.9H84.8973ZM86.5012 386.102C87.0205 386.102 87.4482 385.893 87.7843 385.475C88.1203 385.058 88.2883 384.483 88.2883 383.749C88.2883 383.006 88.1203 382.431 87.7843 382.023C87.4482 381.606 87.0205 381.397 86.5012 381.397C85.9818 381.397 85.5541 381.606 85.2181 382.023C84.8922 382.431 84.7293 383.006 84.7293 383.749C84.7293 384.493 84.8922 385.073 85.2181 385.491C85.5541 385.898 85.9818 386.102 86.5012 386.102ZM95.4659 387.721C94.6614 387.721 93.9639 387.548 93.3732 387.201C92.7826 386.855 92.3294 386.382 92.0138 385.781C91.7083 385.18 91.5555 384.503 91.5555 383.749C91.5555 382.996 91.7083 382.319 92.0138 381.718C92.3294 381.117 92.7826 380.643 93.3732 380.297C93.9639 379.951 94.6614 379.778 95.4659 379.778C96.2704 379.778 96.968 379.951 97.5586 380.297C98.1492 380.643 98.5973 381.117 98.9028 381.718C99.2185 382.319 99.3763 382.996 99.3763 383.749C99.3763 384.503 99.2185 385.18 98.9028 385.781C98.5973 386.382 98.1492 386.855 97.5586 387.201C96.968 387.548 96.2704 387.721 95.4659 387.721ZM95.4659 386.102C96.0565 386.102 96.525 385.878 96.8712 385.43C97.2174 384.971 97.3906 384.411 97.3906 383.749C97.3906 383.087 97.2174 382.532 96.8712 382.084C96.525 381.626 96.0565 381.397 95.4659 381.397C94.8753 381.397 94.4068 381.626 94.0606 382.084C93.7144 382.532 93.5413 383.087 93.5413 383.749C93.5413 384.411 93.7144 384.971 94.0606 385.43C94.4068 385.878 94.8753 386.102 95.4659 386.102ZM102.977 379.9V381.153C103.252 380.715 103.588 380.379 103.985 380.144C104.382 379.9 104.805 379.778 105.253 379.778C105.538 379.778 105.848 379.829 106.184 379.931L105.833 381.687C105.599 381.545 105.334 381.473 105.039 381.473C104.438 381.473 103.944 381.748 103.557 382.298C103.17 382.838 102.977 383.693 102.977 384.864V387.599H101.083V379.9H102.977ZM111 387.721C110.114 387.721 109.422 387.482 108.923 387.003C108.424 386.524 108.174 385.817 108.174 384.88V381.519H106.983V379.9H108.174V377.975L110.068 376.784V379.9H112.1V381.519H110.068V384.849C110.068 385.307 110.15 385.633 110.313 385.827C110.486 386.01 110.74 386.102 111.076 386.102C111.331 386.102 111.575 386.041 111.81 385.918L112.253 387.446C111.856 387.629 111.438 387.721 111 387.721Z" fill="black"/>
</svg>
