<svg width="626" height="438" viewBox="0 0 626 438" fill="none" xmlns="http://www.w3.org/2000/svg">
<path d="M444.934 368.716H86.5674C85.391 368.716 84.4246 367.76 84.4246 366.573V88.7855C84.4246 87.609 85.3804 86.6426 86.5674 86.6426H444.934C446.111 86.6426 447.077 87.5985 447.077 88.7855V366.584C447.066 367.76 446.111 368.716 444.934 368.716Z" fill="white" stroke="#040E2C"/>
<path d="M254.237 338.052H115.58C111.84 338.052 108.815 335.027 108.815 331.287V246.454C108.815 242.715 111.84 239.689 115.58 239.689H254.237C257.977 239.689 261.002 242.715 261.002 246.454V331.287C261.002 335.027 257.977 338.052 254.237 338.052Z" fill="#FFFAE5" stroke="#10162F"/>
<path d="M176.158 267.759H122.271C121.336 267.759 120.579 267.002 120.579 266.067V258.315C120.579 257.38 121.336 256.624 122.271 256.624H176.158C177.093 256.624 177.849 257.38 177.849 258.315V266.067C177.849 267.002 177.093 267.759 176.158 267.759Z" fill="#191C31"/>
<path d="M121.819 278.877H199.152" stroke="#0E1631" stroke-miterlimit="10" stroke-linejoin="round"/>
<path d="M121.819 290.17H199.152" stroke="#0E1631" stroke-miterlimit="10" stroke-linejoin="round"/>
<path d="M121.819 301.462H199.152" stroke="#0E1631" stroke-miterlimit="10" stroke-linejoin="round"/>
<path d="M121.819 312.746H184.908" stroke="#0E1631" stroke-miterlimit="10" stroke-linejoin="round"/>
<path d="M278.334 239.689H214.31V338.052H278.334C281.643 338.052 284.322 335.374 284.322 332.065V245.687C284.322 242.368 281.643 239.689 278.334 239.689Z" fill="#FFFAE5" stroke="#0E1631" stroke-miterlimit="10" stroke-linejoin="round"/>
<path d="M267.704 265.74H229.888C227.273 265.74 225.14 263.618 225.14 260.992C225.14 258.377 227.262 256.244 229.888 256.244H267.704C270.32 256.244 272.452 258.366 272.452 260.992C272.452 263.608 270.33 265.74 267.704 265.74Z" fill="#FFD300" stroke="#040E2C" stroke-linejoin="round"/>
<path d="M267.704 283.366H229.888C227.273 283.366 225.14 281.244 225.14 278.618C225.14 276.002 227.262 273.87 229.888 273.87H267.704C270.32 273.87 272.452 275.992 272.452 278.618C272.452 281.244 270.33 283.366 267.704 283.366Z" fill="#FFD300" stroke="#040E2C" stroke-linejoin="round"/>
<path d="M267.704 300.068H229.888C227.273 300.068 225.14 297.946 225.14 295.32C225.14 292.705 227.262 290.572 229.888 290.572H267.704C270.32 290.572 272.452 292.694 272.452 295.32C272.452 297.946 270.33 300.068 267.704 300.068Z" fill="#FFD300" stroke="#040E2C" stroke-linejoin="round"/>
<path d="M254.237 214.478H115.58C111.84 214.478 108.815 211.453 108.815 207.713V122.88C108.815 119.14 111.84 116.115 115.58 116.115H254.237C257.977 116.115 261.002 119.14 261.002 122.88V207.713C261.002 211.453 257.977 214.478 254.237 214.478Z" fill="#FFFAE5" stroke="#10162F"/>
<path d="M176.159 144.184H122.271C121.336 144.184 120.58 143.428 120.58 142.493V134.741C120.58 133.806 121.336 133.05 122.271 133.05H176.159C177.094 133.05 177.85 133.806 177.85 134.741V142.493C177.85 143.428 177.094 144.184 176.159 144.184Z" fill="#191C31"/>
<path d="M121.82 155.309H199.153" stroke="#0E1631" stroke-miterlimit="10" stroke-linejoin="round"/>
<path d="M121.82 166.602H199.153" stroke="#0E1631" stroke-miterlimit="10" stroke-linejoin="round"/>
<path d="M121.82 177.893H199.153" stroke="#0E1631" stroke-miterlimit="10" stroke-linejoin="round"/>
<path d="M121.82 189.187H199.153" stroke="#0E1631" stroke-miterlimit="10" stroke-linejoin="round"/>
<path d="M121.82 200.466H187.23" stroke="#0E1631" stroke-miterlimit="10" stroke-linejoin="round"/>
<path d="M278.335 116.116H214.311V214.479H278.335C281.644 214.479 284.322 211.8 284.322 208.492V122.114C284.322 118.795 281.644 116.116 278.335 116.116Z" fill="#FFFAE5" stroke="#0E1631" stroke-miterlimit="10" stroke-linejoin="round"/>
<path d="M268.177 142.166H230.361C227.745 142.166 225.613 140.044 225.613 137.418C225.613 134.802 227.735 132.67 230.361 132.67H268.177C270.792 132.67 272.925 134.792 272.925 137.418C272.914 140.044 270.792 142.166 268.177 142.166Z" fill="#FFD300" stroke="#040E2C" stroke-linejoin="round"/>
<path d="M268.177 159.792H230.361C227.745 159.792 225.613 157.67 225.613 155.044C225.613 152.428 227.735 150.296 230.361 150.296H268.177C270.792 150.296 272.925 152.418 272.925 155.044C272.914 157.67 270.792 159.792 268.177 159.792Z" fill="#FFD300" stroke="#040E2C" stroke-linejoin="round"/>
<path d="M268.177 176.493H230.361C227.745 176.493 225.613 174.371 225.613 171.745C225.613 169.129 227.735 166.997 230.361 166.997H268.177C270.792 166.997 272.925 169.119 272.925 171.745C272.914 174.371 270.792 176.493 268.177 176.493Z" fill="#FFD300" stroke="#040E2C" stroke-linejoin="round"/>
<path d="M448.106 338.052H309.449C305.709 338.052 302.684 335.027 302.684 331.287V246.454C302.684 242.715 305.709 239.689 309.449 239.689H448.106C451.846 239.689 454.871 242.715 454.871 246.454V331.287C454.871 335.027 451.846 338.052 448.106 338.052Z" fill="#FFFAE5" stroke="#10162F"/>
<path d="M370.028 267.759H316.14C315.205 267.759 314.449 267.002 314.449 266.067V258.315C314.449 257.38 315.205 256.624 316.14 256.624H370.028C370.963 256.624 371.719 257.38 371.719 258.315V266.067C371.719 267.002 370.963 267.759 370.028 267.759Z" fill="#191C31"/>
<path d="M315.689 278.877H393.022" stroke="#0E1631" stroke-miterlimit="10" stroke-linejoin="round"/>
<path d="M315.689 290.17H393.022" stroke="#0E1631" stroke-miterlimit="10" stroke-linejoin="round"/>
<path d="M315.689 301.462H393.022" stroke="#0E1631" stroke-miterlimit="10" stroke-linejoin="round"/>
<path d="M315.689 312.746H378.778" stroke="#0E1631" stroke-miterlimit="10" stroke-linejoin="round"/>
<path d="M472.203 239.689H408.179V338.052H472.203C475.512 338.052 478.191 335.374 478.191 332.065V245.687C478.201 242.368 475.512 239.689 472.203 239.689Z" fill="#FFFAE5" stroke="#0E1631" stroke-miterlimit="10" stroke-linejoin="round"/>
<path d="M461.573 265.74H423.757C421.142 265.74 419.009 263.618 419.009 260.992C419.009 258.377 421.131 256.244 423.757 256.244H461.573C464.188 256.244 466.321 258.366 466.321 260.992C466.321 263.608 464.199 265.74 461.573 265.74Z" fill="#FFD300" stroke="#040E2C" stroke-linejoin="round"/>
<path d="M461.573 283.366H423.757C421.142 283.366 419.009 281.244 419.009 278.618C419.009 276.002 421.131 273.87 423.757 273.87H461.573C464.188 273.87 466.321 275.992 466.321 278.618C466.321 281.244 464.199 283.366 461.573 283.366Z" fill="#FFD300" stroke="#040E2C" stroke-linejoin="round"/>
<path d="M461.573 300.068H423.757C421.142 300.068 419.009 297.946 419.009 295.32C419.009 292.705 421.131 290.572 423.757 290.572H461.573C464.188 290.572 466.321 292.694 466.321 295.32C466.321 297.946 464.199 300.068 461.573 300.068Z" fill="#FFD300" stroke="#040E2C" stroke-linejoin="round"/>
<path d="M448.107 214.478H309.449C305.709 214.478 302.684 211.453 302.684 207.713V122.88C302.684 119.14 305.709 116.115 309.449 116.115H448.107C451.846 116.115 454.871 119.14 454.871 122.88V207.713C454.871 211.453 451.846 214.478 448.107 214.478Z" fill="#FFFAE5" stroke="#10162F"/>
<path d="M370.028 144.184H316.14C315.206 144.184 314.449 143.428 314.449 142.493V134.741C314.449 133.806 315.206 133.05 316.14 133.05H370.028C370.963 133.05 371.719 133.806 371.719 134.741V142.493C371.719 143.428 370.963 144.184 370.028 144.184Z" fill="#191C31"/>
<path d="M315.689 155.309H393.022" stroke="#0E1631" stroke-miterlimit="10" stroke-linejoin="round"/>
<path d="M315.689 166.602H393.022" stroke="#0E1631" stroke-miterlimit="10" stroke-linejoin="round"/>
<path d="M315.689 177.893H393.022" stroke="#0E1631" stroke-miterlimit="10" stroke-linejoin="round"/>
<path d="M315.689 189.187H393.022" stroke="#0E1631" stroke-miterlimit="10" stroke-linejoin="round"/>
<path d="M315.689 200.466H381.099" stroke="#0E1631" stroke-miterlimit="10" stroke-linejoin="round"/>
<path d="M472.204 116.116H408.18V214.479H472.204C475.513 214.479 478.191 211.8 478.191 208.492V122.114C478.202 118.795 475.513 116.116 472.204 116.116Z" fill="#FFFAE5" stroke="#0E1631" stroke-miterlimit="10" stroke-linejoin="round"/>
<path d="M462.046 142.166H424.23C421.614 142.166 419.482 140.044 419.482 137.418C419.482 134.802 421.604 132.67 424.23 132.67H462.046C464.661 132.67 466.794 134.792 466.794 137.418C466.783 140.044 464.661 142.166 462.046 142.166Z" fill="#FFD300" stroke="#040E2C" stroke-linejoin="round"/>
<path d="M462.046 159.792H424.23C421.614 159.792 419.482 157.67 419.482 155.044C419.482 152.428 421.604 150.296 424.23 150.296H462.046C464.661 150.296 466.794 152.418 466.794 155.044C466.783 157.67 464.661 159.792 462.046 159.792Z" fill="#FFD300" stroke="#040E2C" stroke-linejoin="round"/>
<path d="M462.046 176.493H424.23C421.614 176.493 419.482 174.371 419.482 171.745C419.482 169.129 421.604 166.997 424.23 166.997H462.046C464.661 166.997 466.794 169.119 466.794 171.745C466.783 174.371 464.661 176.493 462.046 176.493Z" fill="#FFD300" stroke="#040E2C" stroke-linejoin="round"/>
<path d="M570.522 269.05H353.964C352.788 269.05 351.821 268.094 351.821 266.907V3.1429C351.821 1.96641 352.777 1 353.964 1H570.522C571.699 1 572.665 1.95591 572.665 3.1429V266.907C572.654 268.094 571.699 269.05 570.522 269.05Z" fill="white" stroke="#040E2C"/>
<path d="M417.011 124.281H386.706V154.586H417.011V124.281Z" fill="#66C4FF" stroke="#10162F"/>
<path d="M417.011 168.117H386.706V198.422H417.011V168.117Z" fill="#66C4FF" stroke="#10162F"/>
<path d="M417.011 212.296H386.706V242.601H417.011V212.296Z" fill="white" stroke="#040E2C"/>
<path d="M429.627 131.854H541.55" stroke="#10162F"/>
<path d="M429.627 147.002H541.55" stroke="#10162F"/>
<path d="M429.627 179.827H541.55" stroke="#10162F"/>
<path d="M429.627 194.977H541.55" stroke="#10162F"/>
<path d="M429.627 220.226H541.55" stroke="#10162F"/>
<path d="M429.627 235.374H541.55" stroke="#10162F"/>
<path d="M540.647 94.9287H386.706V110.37H540.647V94.9287Z" fill="#FFFAE5" stroke="#0E1631" stroke-miterlimit="10" stroke-linejoin="round"/>
<path d="M414.868 78.8987C429.824 78.8987 441.948 66.7745 441.948 51.8185C441.948 36.8625 429.824 24.7383 414.868 24.7383C399.912 24.7383 387.788 36.8625 387.788 51.8185C387.788 66.7745 399.912 78.8987 414.868 78.8987Z" fill="#FFD300" stroke="#040E2C" stroke-linejoin="round"/>
<path d="M414.868 54.1318C420.025 54.1318 424.206 49.9509 424.206 44.7935C424.206 39.636 420.025 35.4551 414.868 35.4551C409.711 35.4551 405.53 39.636 405.53 44.7935C405.53 49.9509 409.711 54.1318 414.868 54.1318Z" fill="#10162F"/>
<path d="M414.868 78.8979C422.935 78.8979 430.162 75.3475 435.12 69.7487C432.211 61.3557 424.248 55.3262 414.868 55.3262C405.488 55.3262 397.525 61.3557 394.616 69.7487C399.574 75.358 406.801 78.8979 414.868 78.8979Z" fill="#10162F"/>
<path d="M456.308 45.4746H536.981" stroke="#040E2C"/>
<path d="M456.308 62.4707H536.981" stroke="#040E2C"/>
<path d="M382.935 136.126L395.004 146.904L422.158 121.042" stroke="#10162F"/>
<path d="M382.935 180.519L395.004 191.296L422.158 165.435" stroke="#10162F"/>
<path d="M625 246.2H429.672V437.085H625V246.2Z" fill="white" stroke="#040E2C"/>
<path d="M527.342 264.593C484.788 264.593 450.292 299.089 450.292 341.642C450.292 384.195 484.788 418.692 527.342 418.692C569.895 418.692 604.391 384.195 604.391 341.642C604.391 299.089 569.895 264.593 527.342 264.593ZM527.342 406.402C491.574 406.402 462.582 377.41 462.582 341.642C462.582 305.875 491.574 276.883 527.342 276.883C563.109 276.883 592.101 305.875 592.101 341.642C592.101 377.41 563.109 406.402 527.342 406.402Z" fill="#FFFAE5" stroke="#10162F"/>
<path d="M592.1 341.64C592.1 377.912 562.279 407.219 525.818 406.379C491.595 405.591 463.622 377.786 462.624 343.573C462.33 333.657 464.283 324.224 467.991 315.736C469.283 312.774 467.981 309.318 465.092 307.869L465.061 307.848C461.951 306.293 458.128 307.617 456.731 310.81C452.434 320.642 450.124 331.535 450.323 342.995C451.027 384.057 484.347 417.639 525.398 418.658C568.844 419.74 604.411 384.845 604.411 341.63C604.411 301.293 573.413 268.194 533.938 264.853C530.387 264.549 527.362 267.406 527.362 270.967V270.998C527.362 274.213 529.852 276.828 533.045 277.112C566.134 280.011 592.1 307.795 592.1 341.64Z" fill="#66C4FF" stroke="#10162F"/>
<path d="M501.857 359.177C499.61 358.032 497.813 356.394 496.469 354.272C495.124 352.15 494.452 349.66 494.452 346.803C494.452 344.293 494.967 342.118 496.007 340.28C497.046 338.442 498.517 336.982 500.429 335.9C499.084 334.818 498.044 333.494 497.309 331.939C496.574 330.385 496.206 328.673 496.206 326.803C496.206 324.555 496.763 322.486 497.866 320.595C498.969 318.715 500.513 317.212 502.509 316.078C504.505 314.954 506.752 314.387 509.263 314.387C511.774 314.387 514.021 314.954 516.017 316.078C518.013 317.202 519.557 318.704 520.66 320.595C521.763 322.475 522.32 324.544 522.32 326.803C522.32 328.662 521.952 330.374 521.217 331.939C520.482 333.494 519.421 334.818 518.034 335.9C519.935 336.982 521.417 338.442 522.488 340.28C523.549 342.118 524.085 344.293 524.085 346.803C524.085 349.66 523.412 352.15 522.068 354.272C520.723 356.394 518.927 358.032 516.679 359.177C514.431 360.322 511.963 360.9 509.274 360.9C506.584 360.9 504.116 360.322 501.857 359.177ZM514.011 351.604C515.272 350.438 515.891 348.831 515.891 346.793C515.891 344.755 515.261 343.158 514.011 341.982C512.75 340.816 511.175 340.227 509.274 340.227C507.372 340.227 505.786 340.816 504.536 341.982C503.276 343.148 502.656 344.755 502.656 346.793C502.656 348.831 503.286 350.427 504.536 351.604C505.797 352.77 507.372 353.358 509.274 353.358C511.175 353.358 512.75 352.77 514.011 351.604ZM513.223 331.11C514.221 330.049 514.715 328.652 514.715 326.918C514.715 325.227 514.221 323.862 513.223 322.822C512.225 321.782 510.902 321.267 509.263 321.267C507.614 321.267 506.301 321.782 505.303 322.822C504.305 323.862 503.811 325.227 503.811 326.918C503.811 328.652 504.305 330.049 505.303 331.11C506.301 332.171 507.614 332.706 509.263 332.706C510.912 332.706 512.236 332.171 513.223 331.11Z" fill="#10162F"/>
<path d="M531.932 354.755C529.032 350.658 527.583 344.955 527.583 337.644C527.583 330.322 529.032 324.618 531.932 320.532C534.831 316.435 538.969 314.397 544.337 314.397C549.705 314.397 553.844 316.446 556.743 320.532C559.642 324.629 561.092 330.333 561.092 337.644C561.092 344.965 559.642 350.669 556.743 354.755C553.844 358.852 549.705 360.89 544.337 360.89C538.969 360.9 534.831 358.852 531.932 354.755ZM553.045 337.644C553.045 327.16 550.146 321.929 544.337 321.929C538.539 321.929 535.629 327.171 535.629 337.644C535.629 348.127 538.528 353.358 544.337 353.358C550.146 353.358 553.045 348.116 553.045 337.644Z" fill="#10162F"/>
<path d="M497.719 372.513H556.964" stroke="#10162F"/>
<path d="M497.719 380.842H556.964" stroke="#10162F"/>
<path d="M431.836 389.601H325.458C323.715 389.601 322.307 388.193 322.307 386.45V356.06C322.307 354.317 323.715 352.909 325.458 352.909H431.836C433.58 352.909 434.987 354.317 434.987 356.06V386.45C434.987 388.193 433.58 389.601 431.836 389.601Z" fill="#10162F" stroke="#10162F" stroke-miterlimit="10"/>
<path d="M434.549 386.798H328.172C326.428 386.798 325.02 385.391 325.02 383.647V353.258C325.02 351.514 326.428 350.106 328.172 350.106H434.549C436.293 350.106 437.701 351.514 437.701 353.258V383.647C437.701 385.38 436.283 386.798 434.549 386.798Z" fill="#FFD300" stroke="#10162F" stroke-miterlimit="10"/>
<path d="M346.333 373.726C345.448 373.726 344.628 373.522 343.875 373.115C343.132 372.697 342.531 372.077 342.073 371.252C341.625 370.427 341.401 369.43 341.401 368.259C341.401 367.088 341.635 366.096 342.103 365.281C342.572 364.457 343.193 363.836 343.966 363.418C344.74 363.001 345.58 362.792 346.486 362.792C347.636 362.792 348.593 363.103 349.357 363.724C350.12 364.335 350.644 365.149 350.93 366.167L349.112 366.64C348.563 365.297 347.687 364.625 346.486 364.625C345.58 364.625 344.842 364.935 344.272 365.556C343.702 366.167 343.417 367.068 343.417 368.259C343.417 369.481 343.697 370.392 344.257 370.992C344.816 371.593 345.544 371.893 346.44 371.893C347.163 371.893 347.723 371.695 348.12 371.298C348.527 370.891 348.766 370.412 348.838 369.862H346.852V368.213H350.762V373.604H349.097L348.929 372.458C348.695 372.825 348.359 373.13 347.921 373.374C347.494 373.609 346.964 373.726 346.333 373.726ZM359.733 370.366H354.419C354.501 370.936 354.699 371.369 355.015 371.664C355.341 371.959 355.753 372.107 356.252 372.107C356.679 372.107 357.036 372.01 357.321 371.817C357.616 371.624 357.881 371.323 358.115 370.916L359.642 371.481C359.326 372.204 358.883 372.759 358.313 373.145C357.753 373.532 357.03 373.726 356.145 373.726C355.31 373.726 354.613 373.532 354.053 373.145C353.503 372.748 353.096 372.25 352.831 371.649C352.577 371.038 352.449 370.407 352.449 369.755C352.449 369.104 352.577 368.478 352.831 367.877C353.096 367.266 353.503 366.768 354.053 366.381C354.613 365.984 355.31 365.785 356.145 365.785C356.949 365.785 357.621 365.979 358.16 366.366C358.7 366.742 359.097 367.221 359.352 367.801C359.606 368.381 359.733 368.977 359.733 369.588V370.366ZM357.794 368.87C357.702 368.442 357.519 368.091 357.244 367.816C356.98 367.541 356.613 367.404 356.145 367.404C355.738 367.404 355.386 367.531 355.091 367.786C354.796 368.03 354.587 368.391 354.465 368.87H357.794ZM364.521 373.726C363.635 373.726 362.943 373.486 362.444 373.008C361.946 372.53 361.696 371.822 361.696 370.885V367.526H360.505V365.907H361.696V363.983L363.59 362.792V365.907H365.621V367.526H363.59V370.855C363.59 371.313 363.671 371.639 363.834 371.832C364.007 372.015 364.262 372.107 364.597 372.107C364.852 372.107 365.096 372.046 365.33 371.924L365.773 373.451C365.376 373.634 364.959 373.726 364.521 373.726ZM372.769 365.907V367.16C373.044 366.722 373.38 366.386 373.777 366.152C374.174 365.907 374.597 365.785 375.045 365.785C375.33 365.785 375.64 365.836 375.976 365.938L375.625 367.694C375.391 367.552 375.126 367.48 374.831 367.48C374.23 367.48 373.737 367.755 373.35 368.305C372.963 368.844 372.769 369.699 372.769 370.87V373.604H370.876V365.907H372.769ZM383.742 370.366H378.428C378.509 370.936 378.708 371.369 379.023 371.664C379.349 371.959 379.761 372.107 380.26 372.107C380.688 372.107 381.044 372.01 381.329 371.817C381.624 371.624 381.889 371.323 382.123 370.916L383.65 371.481C383.335 372.204 382.892 372.759 382.322 373.145C381.762 373.532 381.039 373.726 380.153 373.726C379.319 373.726 378.621 373.532 378.061 373.145C377.512 372.748 377.104 372.25 376.84 371.649C376.585 371.038 376.458 370.407 376.458 369.755C376.458 369.104 376.585 368.478 376.84 367.877C377.104 367.266 377.512 366.768 378.061 366.381C378.621 365.984 379.319 365.785 380.153 365.785C380.958 365.785 381.629 365.979 382.169 366.366C382.708 366.742 383.106 367.221 383.36 367.801C383.615 368.381 383.742 368.977 383.742 369.588V370.366ZM381.802 368.87C381.711 368.442 381.528 368.091 381.253 367.816C380.988 367.541 380.622 367.404 380.153 367.404C379.746 367.404 379.395 367.531 379.1 367.786C378.804 368.03 378.596 368.391 378.474 368.87H381.802ZM387.339 365.907V366.243V366.701C387.461 366.478 387.69 366.269 388.026 366.075C388.372 365.882 388.764 365.785 389.201 365.785C390.331 365.785 391.197 366.147 391.797 366.869C392.408 367.582 392.714 368.544 392.714 369.755C392.714 370.967 392.408 371.934 391.797 372.657C391.197 373.369 390.331 373.726 389.201 373.726C388.825 373.726 388.463 373.644 388.117 373.481C387.771 373.318 387.512 373.125 387.339 372.901V373.359V376.719H385.445V365.907H387.339ZM388.942 372.107C389.461 372.107 389.889 371.898 390.225 371.481C390.561 371.064 390.728 370.488 390.728 369.755C390.728 369.012 390.561 368.437 390.225 368.03C389.889 367.613 389.461 367.404 388.942 367.404C388.423 367.404 387.995 367.613 387.659 368.03C387.333 368.437 387.171 369.012 387.171 369.755C387.171 370.499 387.333 371.079 387.659 371.496C387.995 371.903 388.423 372.107 388.942 372.107ZM397.904 373.726C397.1 373.726 396.402 373.553 395.812 373.206C395.221 372.86 394.768 372.387 394.453 371.786C394.147 371.186 393.995 370.509 393.995 369.755C393.995 369.002 394.147 368.325 394.453 367.725C394.768 367.124 395.221 366.651 395.812 366.304C396.402 365.958 397.1 365.785 397.904 365.785C398.708 365.785 399.405 365.958 399.996 366.304C400.586 366.651 401.034 367.124 401.339 367.725C401.655 368.325 401.813 369.002 401.813 369.755C401.813 370.509 401.655 371.186 401.339 371.786C401.034 372.387 400.586 372.86 399.996 373.206C399.405 373.553 398.708 373.726 397.904 373.726ZM397.904 372.107C398.494 372.107 398.962 371.883 399.309 371.435C399.655 370.977 399.828 370.417 399.828 369.755C399.828 369.094 399.655 368.539 399.309 368.091C398.962 367.633 398.494 367.404 397.904 367.404C397.313 367.404 396.845 367.633 396.499 368.091C396.153 368.539 395.98 369.094 395.98 369.755C395.98 370.417 396.153 370.977 396.499 371.435C396.845 371.883 397.313 372.107 397.904 372.107ZM405.412 365.907V367.16C405.687 366.722 406.023 366.386 406.42 366.152C406.817 365.907 407.239 365.785 407.687 365.785C407.972 365.785 408.283 365.836 408.619 365.938L408.268 367.694C408.033 367.552 407.769 367.48 407.473 367.48C406.873 367.48 406.379 367.755 405.992 368.305C405.605 368.844 405.412 369.699 405.412 370.87V373.604H403.519V365.907H405.412ZM413.433 373.726C412.547 373.726 411.855 373.486 411.356 373.008C410.857 372.53 410.608 371.822 410.608 370.885V367.526H409.417V365.907H410.608V363.983L412.501 362.792V365.907H414.532V367.526H412.501V370.855C412.501 371.313 412.583 371.639 412.746 371.832C412.919 372.015 413.173 372.107 413.509 372.107C413.764 372.107 414.008 372.046 414.242 371.924L414.685 373.451C414.288 373.634 413.871 373.726 413.433 373.726Z" fill="black"/>
<path d="M252.222 424.327H3.78365C2.25002 424.327 1 423.077 1 421.543V328.338C1 326.805 2.25002 325.555 3.78365 325.555H252.222C253.756 325.555 255.006 326.805 255.006 328.338V421.543C255.006 423.088 253.756 424.327 252.222 424.327Z" fill="white" stroke="#040E2C"/>
<path d="M146.254 377.731H87.1459C84.3517 377.731 82.0933 375.472 82.0933 372.678V371.113C82.0933 368.319 84.3517 366.061 87.1459 366.061H146.254C149.048 366.061 151.306 368.319 151.306 371.113V372.678C151.306 375.462 149.048 377.731 146.254 377.731Z" fill="#FFD300" stroke="#040E2C" stroke-linejoin="round"/>
<path d="M214.248 397.961H138.144C135.35 397.961 133.092 395.703 133.092 392.909V391.344C133.092 388.549 135.35 386.291 138.144 386.291H214.248C217.043 386.291 219.301 388.549 219.301 391.344V392.909C219.301 395.692 217.043 397.961 214.248 397.961Z" fill="#FFD300" stroke="#040E2C" stroke-linejoin="round"/>
<path d="M123.848 397.961H87.1354C84.3412 397.961 82.0828 395.703 82.0828 392.909V391.344C82.0828 388.549 84.3412 386.291 87.1354 386.291H123.848C126.642 386.291 128.901 388.549 128.901 391.344V392.909C128.901 395.692 126.642 397.961 123.848 397.961Z" fill="#FFD300" stroke="#040E2C" stroke-linejoin="round"/>
<path d="M188.051 377.731H161.549C158.755 377.731 156.496 375.472 156.496 372.678V371.113C156.496 368.319 158.755 366.061 161.549 366.061H188.051C190.845 366.061 193.104 368.319 193.104 371.113V372.678C193.104 375.462 190.845 377.731 188.051 377.731Z" fill="#FFD300" stroke="#040E2C" stroke-linejoin="round"/>
<path d="M229.039 377.731H202.537C199.743 377.731 197.484 375.472 197.484 372.678V371.113C197.484 368.319 199.743 366.061 202.537 366.061H229.039C231.834 366.061 234.092 368.319 234.092 371.113V372.678C234.092 375.462 231.834 377.731 229.039 377.731Z" fill="#FFD300" stroke="#040E2C" stroke-linejoin="round"/>
<path d="M255.006 344.504H1V328.306C1 326.772 2.25002 325.522 3.78365 325.522H252.222C253.756 325.522 255.006 326.772 255.006 328.306V344.504Z" fill="#FFD300" stroke="#040E2C"/>
<path d="M44.1095 408.181C57.7254 408.181 68.7633 397.144 68.7633 383.528C68.7633 369.912 57.7254 358.874 44.1095 358.874C30.4937 358.874 19.4558 369.912 19.4558 383.528C19.4558 397.144 30.4937 408.181 44.1095 408.181Z" fill="#FFFAE5" stroke="#231815" stroke-linecap="round" stroke-linejoin="round"/>
<path d="M40.2861 397.332L29.8237 386.87L34.7293 381.964L40.2861 387.521L55.6329 372.185L60.5385 377.08L40.2861 397.332Z" fill="#FFD300" stroke="#040E2C" stroke-linejoin="round"/>
</svg>
