<svg width="400" height="342" viewBox="0 0 400 342" fill="none" xmlns="http://www.w3.org/2000/svg">
<path d="M385.824 330.247H11.0142C9.78369 330.247 8.77295 329.131 8.77295 327.746V3.50125C8.77295 2.12801 9.7727 1 11.0142 1H385.824C387.055 1 388.065 2.11575 388.065 3.50125V327.758C388.055 329.131 387.055 330.247 385.824 330.247Z" fill="white" stroke="#040E2C"/>
<path d="M255.726 110.492H229.608V136.61H255.726V110.492Z" fill="#66C4FF" stroke="#10162F"/>
<path d="M255.726 148.271H229.608V174.389H255.726V148.271Z" fill="#66C4FF" stroke="#10162F"/>
<path d="M255.726 186.348H229.608V212.466H255.726V186.348Z" fill="white" stroke="#040E2C"/>
<path d="M265.303 116.988H371.133" stroke="#10162F"/>
<path d="M265.303 129.688H371.133" stroke="#10162F"/>
<path d="M265.303 159.32H371.133" stroke="#10162F"/>
<path d="M265.303 171.173H371.133" stroke="#10162F"/>
<path d="M265.303 193.186H371.133" stroke="#10162F"/>
<path d="M265.303 206.731H371.133" stroke="#10162F"/>
<path d="M371.133 85.6631H229.745V98.3626H371.133V85.6631Z" fill="#FFFAE5" stroke="#0E1631" stroke-miterlimit="10" stroke-linejoin="round"/>
<path d="M253.879 71.3826C266.769 71.3826 277.218 60.9335 277.218 48.0438C277.218 35.1542 266.769 24.7051 253.879 24.7051C240.99 24.7051 230.541 35.1542 230.541 48.0438C230.541 60.9335 240.99 71.3826 253.879 71.3826Z" fill="#FFD300" stroke="#040E2C" stroke-linejoin="round"/>
<path d="M253.879 50.0358C258.324 50.0358 261.928 46.4325 261.928 41.9876C261.928 37.5427 258.324 33.9395 253.879 33.9395C249.434 33.9395 245.831 37.5427 245.831 41.9876C245.831 46.4325 249.434 50.0358 253.879 50.0358Z" fill="#10162F"/>
<path d="M253.879 71.3824C260.832 71.3824 267.061 68.3225 271.334 63.4972C268.826 56.2638 261.964 51.0674 253.879 51.0674C245.795 51.0674 238.933 56.2638 236.425 63.4972C240.698 68.3316 246.927 71.3824 253.879 71.3824Z" fill="#10162F"/>
<path d="M289.009 42.4844H361.82" stroke="#040E2C"/>
<path d="M289.009 56.877H361.82" stroke="#040E2C"/>
<path d="M226.358 120.704L236.76 129.993L260.162 107.704" stroke="#10162F"/>
<path d="M226.358 158.962L236.76 168.251L260.162 145.962" stroke="#10162F"/>
<path d="M105.129 149.799C59.3258 149.799 22.1951 186.93 22.1951 232.732C22.1951 278.535 59.3258 315.666 105.129 315.666C150.932 315.666 188.062 278.535 188.062 232.732C188.062 186.93 150.932 149.799 105.129 149.799ZM105.129 302.437C66.6299 302.437 35.4237 271.231 35.4237 232.732C35.4237 194.234 66.6299 163.028 105.129 163.028C143.628 163.028 174.834 194.234 174.834 232.732C174.834 271.231 143.628 302.437 105.129 302.437Z" fill="#FFFAE5" stroke="#10162F"/>
<path d="M174.834 232.731C174.834 271.772 142.734 303.318 103.489 302.413C66.6526 301.565 36.5433 271.637 35.4691 234.811C35.1525 224.138 37.2556 213.984 41.2468 204.849C42.6375 201.66 41.2355 197.94 38.1262 196.38L38.0923 196.357C34.7455 194.684 30.6299 196.109 29.1262 199.546C24.5018 210.129 22.0143 221.854 22.2292 234.189C22.9867 278.387 58.8511 314.534 103.037 315.63C149.801 316.795 188.085 279.235 188.085 232.719C188.085 189.302 154.719 153.675 112.229 150.08C108.408 149.752 105.151 152.827 105.151 156.66V156.694C105.151 160.154 107.831 162.969 111.268 163.274C146.884 166.395 174.834 196.301 174.834 232.731Z" fill="#66C4FF" stroke="#10162F"/>
<path d="M77.6986 251.605C75.279 250.372 73.3456 248.608 71.8984 246.325C70.4511 244.041 69.7275 241.361 69.7275 238.286C69.7275 235.583 70.2815 233.243 71.4009 231.264C72.5202 229.286 74.1032 227.714 76.161 226.549C74.7137 225.385 73.5943 223.96 72.8029 222.287C72.0114 220.613 71.6157 218.77 71.6157 216.758C71.6157 214.338 72.215 212.111 73.4022 210.076C74.5894 208.052 76.2514 206.435 78.3997 205.214C80.5479 204.004 82.9675 203.394 85.6698 203.394C88.372 203.394 90.7916 204.004 92.9399 205.214C95.0881 206.424 96.7502 208.041 97.9374 210.076C99.1246 212.1 99.7238 214.327 99.7238 216.758C99.7238 218.759 99.3281 220.602 98.5366 222.287C97.7452 223.96 96.6032 225.385 95.1108 226.549C97.1573 227.714 98.7515 229.286 99.9047 231.264C101.047 233.243 101.623 235.583 101.623 238.286C101.623 241.361 100.9 244.041 99.4525 246.325C98.0052 248.608 96.0718 250.372 93.6522 251.605C91.2326 252.837 88.5756 253.459 85.6811 253.459C82.7866 253.459 80.1296 252.837 77.6986 251.605ZM90.7803 243.453C92.1371 242.198 92.8042 240.468 92.8042 238.274C92.8042 236.081 92.1258 234.362 90.7803 233.096C89.4236 231.841 87.7276 231.208 85.6811 231.208C83.6346 231.208 81.9273 231.841 80.5818 233.096C79.225 234.351 78.558 236.081 78.558 238.274C78.558 240.468 79.2363 242.186 80.5818 243.453C81.9386 244.708 83.6346 245.341 85.6811 245.341C87.7276 245.341 89.4236 244.708 90.7803 243.453ZM89.9324 221.394C91.0065 220.252 91.5379 218.748 91.5379 216.882C91.5379 215.062 91.0065 213.592 89.9324 212.473C88.8582 211.353 87.4336 210.799 85.6698 210.799C83.8946 210.799 82.4813 211.353 81.4072 212.473C80.333 213.592 79.8017 215.062 79.8017 216.882C79.8017 218.748 80.333 220.252 81.4072 221.394C82.4813 222.536 83.8946 223.112 85.6698 223.112C87.4449 223.112 88.8695 222.536 89.9324 221.394Z" fill="#10162F"/>
<path d="M110.07 246.844C106.949 242.435 105.389 236.295 105.389 228.426C105.389 220.545 106.949 214.406 110.07 210.007C113.19 205.598 117.645 203.404 123.423 203.404C129.2 203.404 133.655 205.609 136.776 210.007C139.896 214.417 141.457 220.556 141.457 228.426C141.457 236.306 139.896 242.446 136.776 246.844C133.655 251.254 129.2 253.447 123.423 253.447C117.645 253.458 113.19 251.254 110.07 246.844ZM132.796 228.426C132.796 217.142 129.675 211.511 123.423 211.511C117.182 211.511 114.05 217.153 114.05 228.426C114.05 239.71 117.17 245.34 123.423 245.34C129.675 245.34 132.796 239.698 132.796 228.426Z" fill="#10162F"/>
<path d="M73.2439 265.962H137.013" stroke="#10162F"/>
<path d="M73.244 274.929H137.013" stroke="#10162F"/>
<path d="M396.23 323.643H148.199C146.668 323.643 145.42 322.395 145.42 320.863V227.811C145.42 226.28 146.668 225.032 148.199 225.032H396.23C397.761 225.032 399.009 226.28 399.009 227.811V320.863C399.009 322.405 397.761 323.643 396.23 323.643Z" fill="white" stroke="#10162F"/>
<path d="M290.436 277.121H231.425C228.636 277.121 226.381 274.866 226.381 272.077V270.514C226.381 267.724 228.636 265.47 231.425 265.47H290.436C293.226 265.47 295.481 267.724 295.481 270.514V272.077C295.481 274.856 293.226 277.121 290.436 277.121Z" fill="#FFD300" stroke="#10162F" stroke-linejoin="round"/>
<path d="M358.319 297.319H282.34C279.55 297.319 277.296 295.064 277.296 292.275V290.712C277.296 287.923 279.55 285.668 282.34 285.668H358.319C361.109 285.668 363.363 287.923 363.363 290.712V292.275C363.363 295.054 361.109 297.319 358.319 297.319Z" fill="#FFD300" stroke="#10162F" stroke-linejoin="round"/>
<path d="M268.067 297.319H231.415C228.625 297.319 226.37 295.064 226.37 292.275V290.712C226.37 287.923 228.625 285.668 231.415 285.668H268.067C270.857 285.668 273.112 287.923 273.112 290.712V292.275C273.112 295.054 270.857 297.319 268.067 297.319Z" fill="#FFD300" stroke="#10162F" stroke-linejoin="round"/>
<path d="M332.164 277.121H305.705C302.916 277.121 300.661 274.866 300.661 272.077V270.514C300.661 267.724 302.916 265.47 305.705 265.47H332.164C334.954 265.47 337.209 267.724 337.209 270.514V272.077C337.209 274.856 334.954 277.121 332.164 277.121Z" fill="#FFD300" stroke="#10162F" stroke-linejoin="round"/>
<path d="M373.085 277.121H346.626C343.837 277.121 341.582 274.866 341.582 272.077V270.514C341.582 267.724 343.837 265.47 346.626 265.47H373.085C375.875 265.47 378.13 267.724 378.13 270.514V272.077C378.13 274.856 375.875 277.121 373.085 277.121Z" fill="#FFD300" stroke="#10162F" stroke-linejoin="round"/>
<path d="M399.009 243.95H145.42V227.779C145.42 226.248 146.668 225 148.199 225H396.23C397.761 225 399.009 226.248 399.009 227.779V243.95Z" fill="#FFD300" stroke="#10162F"/>
<path d="M188.46 307.522C202.053 307.522 213.073 296.503 213.073 282.909C213.073 269.316 202.053 258.296 188.46 258.296C174.866 258.296 163.846 269.316 163.846 282.909C163.846 296.503 174.866 307.522 188.46 307.522Z" fill="#FFFAE5" stroke="#10162F" stroke-linecap="round" stroke-linejoin="round"/>
<path d="M184.642 296.689L174.197 286.244L179.094 281.347L184.642 286.894L199.964 271.583L204.861 276.47L184.642 296.689Z" fill="#FFD300" stroke="#10162F" stroke-linejoin="round"/>
<path d="M115.957 341.04H27.5515C26.1024 341.04 24.9326 339.87 24.9326 338.421V313.166C24.9326 311.717 26.1024 310.547 27.5515 310.547H115.957C117.407 310.547 118.576 311.717 118.576 313.166V338.421C118.576 339.87 117.407 341.04 115.957 341.04Z" fill="#10162F" stroke="#10162F" stroke-miterlimit="10"/>
<path d="M118.183 338.822H29.7774C28.3282 338.822 27.1584 337.652 27.1584 336.203V310.948C27.1584 309.499 28.3282 308.329 29.7774 308.329H118.183C119.632 308.329 120.802 309.499 120.802 310.948V336.203C120.802 337.644 119.624 338.822 118.183 338.822Z" fill="#FFD300" stroke="#10162F" stroke-miterlimit="10"/>
<path d="M40.6365 329.122C39.7505 329.122 38.9308 328.919 38.1772 328.511C37.4338 328.094 36.833 327.472 36.3748 326.648C35.9267 325.823 35.7027 324.825 35.7027 323.654C35.7027 322.483 35.9369 321.49 36.4053 320.675C36.8737 319.85 37.4949 319.229 38.2689 318.812C39.0428 318.394 39.8829 318.185 40.7892 318.185C41.9399 318.185 42.8972 318.496 43.6609 319.117C44.4247 319.728 44.9491 320.543 45.2342 321.561L43.4165 322.035C42.8666 320.69 41.9909 320.018 40.7892 320.018C39.8829 320.018 39.1446 320.329 38.5744 320.95C38.0041 321.561 37.7189 322.462 37.7189 323.654C37.7189 324.876 37.999 325.787 38.5591 326.388C39.1192 326.989 39.8473 327.289 40.7434 327.289C41.4664 327.289 42.0265 327.091 42.4237 326.693C42.831 326.286 43.0703 325.808 43.1416 325.258H41.1558V323.608H45.0662V329H43.4012L43.2332 327.854C42.999 328.221 42.663 328.526 42.2251 328.771C41.7974 329.005 41.2678 329.122 40.6365 329.122ZM54.0409 325.762H48.7252C48.8067 326.332 49.0052 326.765 49.3209 327.06C49.6468 327.355 50.0592 327.503 50.5582 327.503C50.9859 327.503 51.3423 327.406 51.6274 327.213C51.9228 327.019 52.1875 326.719 52.4217 326.312L53.9492 326.877C53.6336 327.6 53.1906 328.155 52.6203 328.542C52.0602 328.929 51.3372 329.122 50.4513 329.122C49.6162 329.122 48.9187 328.929 48.3586 328.542C47.8087 328.145 47.4014 327.646 47.1366 327.045C46.882 326.434 46.7547 325.802 46.7547 325.151C46.7547 324.499 46.882 323.873 47.1366 323.272C47.4014 322.661 47.8087 322.162 48.3586 321.775C48.9187 321.378 49.6162 321.179 50.4513 321.179C51.2557 321.179 51.9278 321.373 52.4676 321.76C53.0073 322.136 53.4044 322.615 53.659 323.195C53.9136 323.776 54.0409 324.372 54.0409 324.983V325.762ZM52.101 324.265C52.0093 323.837 51.826 323.486 51.5511 323.211C51.2863 322.936 50.9197 322.798 50.4513 322.798C50.0439 322.798 49.6926 322.926 49.3973 323.18C49.102 323.425 48.8932 323.786 48.771 324.265H52.101ZM58.8303 329.122C57.9444 329.122 57.2519 328.883 56.7529 328.404C56.2539 327.926 56.0044 327.218 56.0044 326.281V322.921H54.813V321.301H56.0044V319.377L57.8985 318.185V321.301H59.9301V322.921H57.8985V326.25C57.8985 326.709 57.98 327.035 58.1429 327.228C58.3161 327.411 58.5706 327.503 58.9067 327.503C59.1613 327.503 59.4057 327.442 59.6399 327.32L60.0829 328.847C59.6857 329.031 59.2682 329.122 58.8303 329.122ZM67.0813 321.301V322.554C67.3563 322.116 67.6923 321.78 68.0895 321.546C68.4866 321.301 68.9092 321.179 69.3573 321.179C69.6424 321.179 69.953 321.23 70.2891 321.332L69.9377 323.089C69.7035 322.946 69.4388 322.875 69.1434 322.875C68.5426 322.875 68.0487 323.15 67.6618 323.7C67.2748 324.239 67.0813 325.095 67.0813 326.266V329H65.1872V321.301H67.0813ZM78.0572 325.762H72.7415C72.823 326.332 73.0216 326.765 73.3373 327.06C73.6631 327.355 74.0756 327.503 74.5745 327.503C75.0022 327.503 75.3587 327.406 75.6438 327.213C75.9391 327.019 76.2039 326.719 76.4381 326.312L77.9656 326.877C77.6499 327.6 77.2069 328.155 76.6367 328.542C76.0766 328.929 75.3536 329.122 74.4676 329.122C73.6326 329.122 72.935 328.929 72.3749 328.542C71.825 328.145 71.4177 327.646 71.1529 327.045C70.8984 326.434 70.7711 325.802 70.7711 325.151C70.7711 324.499 70.8984 323.873 71.1529 323.272C71.4177 322.661 71.825 322.162 72.3749 321.775C72.935 321.378 73.6326 321.179 74.4676 321.179C75.2721 321.179 75.9442 321.373 76.4839 321.76C77.0236 322.136 77.4208 322.615 77.6754 323.195C77.93 323.776 78.0572 324.372 78.0572 324.983V325.762ZM76.1173 324.265C76.0257 323.837 75.8424 323.486 75.5674 323.211C75.3026 322.936 74.936 322.798 74.4676 322.798C74.0603 322.798 73.709 322.926 73.4136 323.18C73.1183 323.425 72.9096 323.786 72.7874 324.265H76.1173ZM81.6552 321.301V321.637V322.096C81.7774 321.872 82.0065 321.663 82.3426 321.469C82.6888 321.276 83.0809 321.179 83.5188 321.179C84.6491 321.179 85.5147 321.541 86.1155 322.264C86.7265 322.977 87.032 323.939 87.032 325.151C87.032 326.363 86.7265 327.33 86.1155 328.053C85.5147 328.766 84.6491 329.122 83.5188 329.122C83.142 329.122 82.7805 329.041 82.4342 328.878C82.088 328.715 81.8283 328.521 81.6552 328.297V328.756V332.116H79.7611V321.301H81.6552ZM83.2591 327.503C83.7784 327.503 84.2061 327.294 84.5422 326.877C84.8782 326.459 85.0463 325.884 85.0463 325.151C85.0463 324.407 84.8782 323.832 84.5422 323.425C84.2061 323.007 83.7784 322.798 83.2591 322.798C82.7397 322.798 82.312 323.007 81.976 323.425C81.6501 323.832 81.4872 324.407 81.4872 325.151C81.4872 325.894 81.6501 326.475 81.976 326.892C82.312 327.299 82.7397 327.503 83.2591 327.503ZM92.2238 329.122C91.4194 329.122 90.7218 328.949 90.1312 328.603C89.5405 328.257 89.0874 327.783 88.7717 327.182C88.4662 326.581 88.3134 325.904 88.3134 325.151C88.3134 324.397 88.4662 323.72 88.7717 323.119C89.0874 322.518 89.5405 322.045 90.1312 321.699C90.7218 321.352 91.4194 321.179 92.2238 321.179C93.0283 321.179 93.7259 321.352 94.3165 321.699C94.9072 322.045 95.3552 322.518 95.6607 323.119C95.9764 323.72 96.1342 324.397 96.1342 325.151C96.1342 325.904 95.9764 326.581 95.6607 327.182C95.3552 327.783 94.9072 328.257 94.3165 328.603C93.7259 328.949 93.0283 329.122 92.2238 329.122ZM92.2238 327.503C92.8145 327.503 93.2829 327.279 93.6291 326.831C93.9754 326.373 94.1485 325.813 94.1485 325.151C94.1485 324.489 93.9754 323.934 93.6291 323.486C93.2829 323.027 92.8145 322.798 92.2238 322.798C91.6332 322.798 91.1648 323.027 90.8185 323.486C90.4723 323.934 90.2992 324.489 90.2992 325.151C90.2992 325.813 90.4723 326.373 90.8185 326.831C91.1648 327.279 91.6332 327.503 92.2238 327.503ZM99.7346 321.301V322.554C100.01 322.116 100.346 321.78 100.743 321.546C101.14 321.301 101.563 321.179 102.011 321.179C102.296 321.179 102.606 321.23 102.942 321.332L102.591 323.089C102.357 322.946 102.092 322.875 101.797 322.875C101.196 322.875 100.702 323.15 100.315 323.7C99.9281 324.239 99.7346 325.095 99.7346 326.266V329H97.8405V321.301H99.7346ZM107.758 329.122C106.872 329.122 106.18 328.883 105.681 328.404C105.182 327.926 104.932 327.218 104.932 326.281V322.921H103.741V321.301H104.932V319.377L106.826 318.185V321.301H108.858V322.921H106.826V326.25C106.826 326.709 106.908 327.035 107.071 327.228C107.244 327.411 107.498 327.503 107.834 327.503C108.089 327.503 108.333 327.442 108.568 327.32L109.011 328.847C108.613 329.031 108.196 329.122 107.758 329.122Z" fill="black"/>
</svg>
