<svg width="586" height="394" viewBox="0 0 586 394" fill="none" xmlns="http://www.w3.org/2000/svg">
<path d="M376.477 344.988H41.0833C39.9822 344.988 39.0778 344.093 39.0778 342.982V83.0016C39.0778 81.9005 39.9724 80.9961 41.0833 80.9961H376.477C377.578 80.9961 378.483 81.8907 378.483 83.0016V342.992C378.473 344.093 377.578 344.988 376.477 344.988Z" fill="white" stroke="#10162F"/>
<path d="M198.005 316.291H68.2362C64.7364 316.291 61.905 313.459 61.905 309.96V230.565C61.905 227.065 64.7364 224.233 68.2362 224.233H198.005C201.505 224.233 204.336 227.065 204.336 230.565V309.96C204.336 313.459 201.505 316.291 198.005 316.291Z" fill="#FFFAE5" stroke="#10162F"/>
<path d="M124.932 250.502H74.4987C73.6237 250.502 72.9159 249.794 72.9159 248.919V241.664C72.9159 240.789 73.6237 240.081 74.4987 240.081H124.932C125.807 240.081 126.514 240.789 126.514 241.664V248.919C126.514 249.794 125.807 250.502 124.932 250.502Z" fill="#10162F"/>
<path d="M74.0759 260.913H146.452" stroke="#10162F" stroke-miterlimit="10" stroke-linejoin="round"/>
<path d="M74.0759 271.481H146.452" stroke="#10162F" stroke-miterlimit="10" stroke-linejoin="round"/>
<path d="M74.0759 282.05H146.452" stroke="#10162F" stroke-miterlimit="10" stroke-linejoin="round"/>
<path d="M74.0759 292.608H133.121" stroke="#10162F" stroke-miterlimit="10" stroke-linejoin="round"/>
<path d="M220.558 224.233H160.638V316.291H220.558C223.654 316.291 226.161 313.784 226.161 310.687V229.847C226.161 226.74 223.654 224.233 220.558 224.233Z" fill="#FFFAE5" stroke="#10162F" stroke-miterlimit="10" stroke-linejoin="round"/>
<path d="M210.609 248.614H175.217C172.769 248.614 170.774 246.628 170.774 244.17C170.774 241.722 172.76 239.727 175.217 239.727H210.609C213.057 239.727 215.052 241.712 215.052 244.17C215.052 246.618 213.067 248.614 210.609 248.614Z" fill="#FFD300" stroke="#10162F" stroke-linejoin="round"/>
<path d="M210.609 265.111H175.217C172.769 265.111 170.774 263.125 170.774 260.667C170.774 258.219 172.76 256.224 175.217 256.224H210.609C213.057 256.224 215.052 258.209 215.052 260.667C215.052 263.125 213.067 265.111 210.609 265.111Z" fill="#FFD300" stroke="#10162F" stroke-linejoin="round"/>
<path d="M210.609 280.742H175.217C172.769 280.742 170.774 278.756 170.774 276.298C170.774 273.85 172.76 271.854 175.217 271.854H210.609C213.057 271.854 215.052 273.84 215.052 276.298C215.052 278.756 213.067 280.742 210.609 280.742Z" fill="#FFD300" stroke="#10162F" stroke-linejoin="round"/>
<path d="M198.005 200.639H68.2362C64.7364 200.639 61.905 197.808 61.905 194.308V114.913C61.905 111.413 64.7364 108.582 68.2362 108.582H198.005C201.505 108.582 204.336 111.413 204.336 114.913V194.308C204.336 197.808 201.505 200.639 198.005 200.639Z" fill="#FFFAE5" stroke="#10162F"/>
<path d="M124.932 134.851H74.4987C73.6237 134.851 72.9159 134.143 72.9159 133.268V126.012C72.9159 125.138 73.6237 124.43 74.4987 124.43H124.932C125.807 124.43 126.514 125.138 126.514 126.012V133.268C126.514 134.143 125.807 134.851 124.932 134.851Z" fill="#10162F"/>
<path d="M74.0759 145.262H146.452" stroke="#10162F" stroke-miterlimit="10" stroke-linejoin="round"/>
<path d="M74.0759 155.83H146.452" stroke="#10162F" stroke-miterlimit="10" stroke-linejoin="round"/>
<path d="M74.0759 166.398H146.452" stroke="#10162F" stroke-miterlimit="10" stroke-linejoin="round"/>
<path d="M74.0759 176.967H146.452" stroke="#10162F" stroke-miterlimit="10" stroke-linejoin="round"/>
<path d="M74.0759 187.525H135.293" stroke="#10162F" stroke-miterlimit="10" stroke-linejoin="round"/>
<path d="M220.558 108.582H160.638V200.639H220.558C223.654 200.639 226.161 198.133 226.161 195.036V114.196C226.161 111.089 223.654 108.582 220.558 108.582Z" fill="#FFFAE5" stroke="#10162F" stroke-miterlimit="10" stroke-linejoin="round"/>
<path d="M211.051 132.962H175.66C173.212 132.962 171.216 130.977 171.216 128.519C171.216 126.071 173.202 124.075 175.66 124.075H211.051C213.499 124.075 215.495 126.061 215.495 128.519C215.485 130.977 213.499 132.962 211.051 132.962Z" fill="#FFD300" stroke="#10162F" stroke-linejoin="round"/>
<path d="M211.051 149.459H175.66C173.212 149.459 171.216 147.474 171.216 145.016C171.216 142.568 173.202 140.572 175.66 140.572H211.051C213.499 140.572 215.495 142.558 215.495 145.016C215.485 147.474 213.499 149.459 211.051 149.459Z" fill="#FFD300" stroke="#10162F" stroke-linejoin="round"/>
<path d="M211.051 165.09H175.66C173.212 165.09 171.216 163.104 171.216 160.647C171.216 158.199 173.202 156.203 175.66 156.203H211.051C213.499 156.203 215.495 158.189 215.495 160.647C215.485 163.104 213.499 165.09 211.051 165.09Z" fill="#FFD300" stroke="#10162F" stroke-linejoin="round"/>
<path d="M379.446 316.291H249.677C246.178 316.291 243.346 313.459 243.346 309.96V230.565C243.346 227.065 246.178 224.233 249.677 224.233H379.446C382.946 224.233 385.778 227.065 385.778 230.565V309.96C385.778 313.459 382.946 316.291 379.446 316.291Z" fill="#FFFAE5" stroke="#10162F"/>
<path d="M306.373 250.502H255.94C255.065 250.502 254.357 249.794 254.357 248.919V241.664C254.357 240.789 255.065 240.081 255.94 240.081H306.373C307.248 240.081 307.955 240.789 307.955 241.664V248.919C307.955 249.794 307.248 250.502 306.373 250.502Z" fill="#10162F"/>
<path d="M255.517 260.913H327.892" stroke="#10162F" stroke-miterlimit="10" stroke-linejoin="round"/>
<path d="M255.517 271.481H327.892" stroke="#10162F" stroke-miterlimit="10" stroke-linejoin="round"/>
<path d="M255.517 282.05H327.892" stroke="#10162F" stroke-miterlimit="10" stroke-linejoin="round"/>
<path d="M255.517 292.608H314.562" stroke="#10162F" stroke-miterlimit="10" stroke-linejoin="round"/>
<path d="M401.999 224.233H342.079V316.291H401.999C405.095 316.291 407.602 313.784 407.602 310.687V229.847C407.612 226.74 405.095 224.233 401.999 224.233Z" fill="#FFFAE5" stroke="#10162F" stroke-miterlimit="10" stroke-linejoin="round"/>
<path d="M392.05 248.614H356.658C354.21 248.614 352.214 246.628 352.214 244.17C352.214 241.722 354.2 239.727 356.658 239.727H392.05C394.497 239.727 396.493 241.712 396.493 244.17C396.493 246.618 394.507 248.614 392.05 248.614Z" fill="#FFD300" stroke="#10162F" stroke-linejoin="round"/>
<path d="M392.05 265.111H356.658C354.21 265.111 352.214 263.125 352.214 260.667C352.214 258.219 354.2 256.224 356.658 256.224H392.05C394.497 256.224 396.493 258.209 396.493 260.667C396.493 263.125 394.507 265.111 392.05 265.111Z" fill="#FFD300" stroke="#10162F" stroke-linejoin="round"/>
<path d="M392.05 280.742H356.658C354.21 280.742 352.214 278.756 352.214 276.298C352.214 273.85 354.2 271.854 356.658 271.854H392.05C394.497 271.854 396.493 273.84 396.493 276.298C396.493 278.756 394.507 280.742 392.05 280.742Z" fill="#FFD300" stroke="#10162F" stroke-linejoin="round"/>
<path d="M379.446 200.639H249.677C246.178 200.639 243.346 197.808 243.346 194.308V114.913C243.346 111.413 246.178 108.582 249.677 108.582H379.446C382.946 108.582 385.778 111.413 385.778 114.913V194.308C385.778 197.808 382.946 200.639 379.446 200.639Z" fill="#FFFAE5" stroke="#10162F"/>
<path d="M306.373 134.851H255.94C255.065 134.851 254.357 134.143 254.357 133.268V126.012C254.357 125.138 255.065 124.43 255.94 124.43H306.373C307.248 124.43 307.955 125.138 307.955 126.012V133.268C307.955 134.143 307.248 134.851 306.373 134.851Z" fill="#10162F"/>
<path d="M255.517 145.262H327.892" stroke="#10162F" stroke-miterlimit="10" stroke-linejoin="round"/>
<path d="M255.517 155.83H327.892" stroke="#10162F" stroke-miterlimit="10" stroke-linejoin="round"/>
<path d="M255.517 166.398H327.892" stroke="#10162F" stroke-miterlimit="10" stroke-linejoin="round"/>
<path d="M255.517 176.967H327.892" stroke="#10162F" stroke-miterlimit="10" stroke-linejoin="round"/>
<path d="M255.517 187.525H316.734" stroke="#10162F" stroke-miterlimit="10" stroke-linejoin="round"/>
<path d="M401.999 108.582H342.079V200.639H401.999C405.095 200.639 407.602 198.133 407.602 195.036V114.196C407.612 111.089 405.095 108.582 401.999 108.582Z" fill="#FFFAE5" stroke="#10162F" stroke-miterlimit="10" stroke-linejoin="round"/>
<path d="M392.492 132.962H357.1C354.653 132.962 352.657 130.977 352.657 128.519C352.657 126.071 354.643 124.075 357.1 124.075H392.492C394.94 124.075 396.936 126.061 396.936 128.519C396.926 130.977 394.94 132.962 392.492 132.962Z" fill="#FFD300" stroke="#10162F" stroke-linejoin="round"/>
<path d="M392.492 149.459H357.1C354.653 149.459 352.657 147.474 352.657 145.016C352.657 142.568 354.643 140.572 357.1 140.572H392.492C394.94 140.572 396.936 142.558 396.936 145.016C396.926 147.474 394.94 149.459 392.492 149.459Z" fill="#FFD300" stroke="#10162F" stroke-linejoin="round"/>
<path d="M392.492 165.09H357.1C354.653 165.09 352.657 163.104 352.657 160.647C352.657 158.199 354.643 156.203 357.1 156.203H392.492C394.94 156.203 396.936 158.189 396.936 160.647C396.926 163.104 394.94 165.09 392.492 165.09Z" fill="#FFD300" stroke="#10162F" stroke-linejoin="round"/>
<path d="M523.143 251.52H320.468C319.367 251.52 318.462 250.625 318.462 249.514V2.65787C318.462 1.5568 319.357 0.652344 320.468 0.652344H523.143C524.245 0.652344 525.149 1.54697 525.149 2.65787V249.514C525.139 250.625 524.245 251.52 523.143 251.52Z" fill="white" stroke="#10162F"/>
<path d="M379.473 116.028H351.111V144.391H379.473V116.028Z" fill="#66C4FF" stroke="#10162F"/>
<path d="M379.473 157.053H351.111V185.415H379.473V157.053Z" fill="#66C4FF" stroke="#10162F"/>
<path d="M379.473 198.402H351.111V226.765H379.473V198.402Z" fill="white" stroke="#10162F"/>
<path d="M391.28 123.116H496.029" stroke="#10162F"/>
<path d="M391.28 137.293H496.029" stroke="#10162F"/>
<path d="M391.28 168.015H496.029" stroke="#10162F"/>
<path d="M391.28 182.19H496.029" stroke="#10162F"/>
<path d="M391.28 205.824H496.029" stroke="#10162F"/>
<path d="M391.28 220.001H496.029" stroke="#10162F"/>
<path d="M495.184 88.5605H351.111V103.012H495.184V88.5605Z" fill="#FFFAE5" stroke="#10162F" stroke-miterlimit="10" stroke-linejoin="round"/>
<path d="M377.468 73.5587C391.465 73.5587 402.812 62.2117 402.812 48.2144C402.812 34.2171 391.465 22.8701 377.468 22.8701C363.47 22.8701 352.123 34.2171 352.123 48.2144C352.123 62.2117 363.47 73.5587 377.468 73.5587Z" fill="#FFD300" stroke="#10162F" stroke-linejoin="round"/>
<path d="M377.468 50.377C382.295 50.377 386.208 46.464 386.208 41.6372C386.208 36.8104 382.295 32.8975 377.468 32.8975C372.641 32.8975 368.728 36.8104 368.728 41.6372C368.728 46.464 372.641 50.377 377.468 50.377Z" fill="#10162F"/>
<path d="M377.468 73.5588C385.018 73.5588 391.782 70.2359 396.422 64.996C393.699 57.141 386.247 51.498 377.468 51.498C368.689 51.498 361.237 57.141 358.514 64.996C363.154 70.2458 369.918 73.5588 377.468 73.5588Z" fill="#10162F"/>
<path d="M416.251 42.2764H491.753" stroke="#10162F"/>
<path d="M416.251 58.1826H491.753" stroke="#10162F"/>
<path d="M347.582 127.118L358.877 137.205L384.291 113.001" stroke="#10162F"/>
<path d="M347.582 168.664L358.877 178.751L384.291 154.547" stroke="#10162F"/>
<path d="M585 214.319H402.193V392.968H585V214.319Z" fill="white" stroke="#10162F"/>
<path d="M493.601 231.533C453.776 231.533 421.491 263.818 421.491 303.644C421.491 343.469 453.776 375.754 493.601 375.754C533.426 375.754 565.711 343.469 565.711 303.644C565.711 263.818 533.426 231.533 493.601 231.533ZM493.601 364.252C460.127 364.252 432.993 337.118 432.993 303.644C432.993 270.169 460.127 243.035 493.601 243.035C527.076 243.035 554.209 270.169 554.209 303.644C554.209 337.118 527.076 364.252 493.601 364.252Z" fill="#FFFAE5" stroke="#10162F"/>
<path d="M554.209 303.643C554.209 337.59 526.299 365.018 492.176 364.232C460.146 363.494 433.966 337.472 433.032 305.452C432.757 296.172 434.586 287.343 438.056 279.4C439.265 276.628 438.046 273.393 435.343 272.037L435.313 272.017C432.403 270.562 428.825 271.801 427.517 274.789C423.496 283.991 421.334 294.186 421.52 304.911C422.179 343.341 453.363 374.77 491.782 375.724C532.443 376.737 565.731 344.078 565.731 303.633C565.731 265.882 536.72 234.905 499.775 231.779C496.452 231.494 493.621 234.168 493.621 237.5V237.53C493.621 240.538 495.951 242.986 498.939 243.251C529.907 245.965 554.209 271.968 554.209 303.643Z" fill="#66C4FF" stroke="#10162F"/>
<path d="M469.751 320.051C467.647 318.98 465.966 317.446 464.708 315.46C463.449 313.474 462.82 311.144 462.82 308.47C462.82 306.121 463.302 304.086 464.275 302.365C465.249 300.645 466.625 299.278 468.414 298.266C467.156 297.253 466.182 296.014 465.494 294.559C464.806 293.104 464.462 291.502 464.462 289.752C464.462 287.648 464.983 285.712 466.015 283.942C467.048 282.182 468.493 280.776 470.361 279.715C472.229 278.663 474.332 278.132 476.682 278.132C479.032 278.132 481.135 278.663 483.003 279.715C484.871 280.767 486.316 282.172 487.349 283.942C488.381 285.702 488.902 287.638 488.902 289.752C488.902 291.492 488.558 293.095 487.87 294.559C487.181 296.014 486.189 297.253 484.891 298.266C486.67 299.278 488.056 300.645 489.059 302.365C490.052 304.086 490.553 306.121 490.553 308.47C490.553 311.144 489.924 313.474 488.666 315.46C487.408 317.446 485.726 318.98 483.623 320.051C481.519 321.123 479.209 321.663 476.692 321.663C474.175 321.663 471.865 321.123 469.751 320.051ZM481.126 312.963C482.305 311.872 482.885 310.368 482.885 308.46C482.885 306.553 482.295 305.059 481.126 303.958C479.946 302.867 478.471 302.316 476.692 302.316C474.912 302.316 473.428 302.867 472.258 303.958C471.078 305.049 470.498 306.553 470.498 308.46C470.498 310.368 471.088 311.862 472.258 312.963C473.438 314.054 474.912 314.605 476.692 314.605C478.471 314.605 479.946 314.054 481.126 312.963ZM480.388 293.783C481.322 292.79 481.784 291.482 481.784 289.86C481.784 288.277 481.322 286.999 480.388 286.026C479.454 285.053 478.216 284.571 476.682 284.571C475.139 284.571 473.91 285.053 472.976 286.026C472.042 286.999 471.58 288.277 471.58 289.86C471.58 291.482 472.042 292.79 472.976 293.783C473.91 294.776 475.139 295.277 476.682 295.277C478.225 295.277 479.464 294.776 480.388 293.783Z" fill="#10162F"/>
<path d="M497.897 315.912C495.184 312.078 493.827 306.74 493.827 299.898C493.827 293.045 495.184 287.707 497.897 283.883C500.611 280.049 504.484 278.142 509.508 278.142C514.531 278.142 518.405 280.059 521.118 283.883C523.831 287.717 525.188 293.055 525.188 299.898C525.188 306.75 523.831 312.088 521.118 315.912C518.405 319.746 514.531 321.654 509.508 321.654C504.484 321.663 500.611 319.746 497.897 315.912ZM517.658 299.898C517.658 290.086 514.944 285.19 509.508 285.19C504.081 285.19 501.358 290.096 501.358 299.898C501.358 309.709 504.071 314.605 509.508 314.605C514.944 314.605 517.658 309.699 517.658 299.898Z" fill="#10162F"/>
<path d="M465.878 332.537H521.325" stroke="#10162F"/>
<path d="M465.878 340.333H521.325" stroke="#10162F"/>
<path d="M404.218 348.532H304.66C303.028 348.532 301.71 347.215 301.71 345.583V317.142C301.71 315.51 303.028 314.192 304.66 314.192H404.218C405.85 314.192 407.167 315.51 407.167 317.142V345.583C407.167 347.215 405.85 348.532 404.218 348.532Z" fill="#10162F" stroke="#10162F" stroke-miterlimit="10"/>
<path d="M406.508 346.34H306.949C305.317 346.34 304 345.022 304 343.39V314.949C304 313.317 305.317 312 306.949 312H406.508C408.14 312 409.457 313.317 409.457 314.949V343.39C409.457 345.012 408.13 346.34 406.508 346.34Z" fill="#FFD300" stroke="#10162F" stroke-miterlimit="10"/>
<path d="M324.636 334.122C323.751 334.122 322.931 333.919 322.177 333.511C321.434 333.094 320.833 332.472 320.375 331.648C319.927 330.823 319.703 329.825 319.703 328.654C319.703 327.483 319.937 326.49 320.405 325.675C320.874 324.85 321.495 324.229 322.269 323.812C323.043 323.394 323.883 323.185 324.789 323.185C325.94 323.185 326.897 323.496 327.661 324.117C328.425 324.728 328.949 325.543 329.234 326.561L327.417 327.035C326.867 325.69 325.991 325.018 324.789 325.018C323.883 325.018 323.145 325.329 322.574 325.95C322.004 326.561 321.719 327.462 321.719 328.654C321.719 329.876 321.999 330.787 322.559 331.388C323.119 331.989 323.847 332.289 324.743 332.289C325.466 332.289 326.027 332.091 326.424 331.693C326.831 331.286 327.07 330.808 327.142 330.258H325.156V328.608H329.066V334H327.401L327.233 332.854C326.999 333.221 326.663 333.526 326.225 333.771C325.797 334.005 325.268 334.122 324.636 334.122ZM338.041 330.762H332.725C332.807 331.332 333.005 331.765 333.321 332.06C333.647 332.355 334.059 332.503 334.558 332.503C334.986 332.503 335.342 332.406 335.627 332.213C335.923 332.019 336.188 331.719 336.422 331.312L337.949 331.877C337.634 332.6 337.191 333.155 336.62 333.542C336.06 333.929 335.337 334.122 334.451 334.122C333.616 334.122 332.919 333.929 332.359 333.542C331.809 333.145 331.401 332.646 331.137 332.045C330.882 331.434 330.755 330.802 330.755 330.151C330.755 329.499 330.882 328.873 331.137 328.272C331.401 327.661 331.809 327.162 332.359 326.775C332.919 326.378 333.616 326.179 334.451 326.179C335.256 326.179 335.928 326.373 336.468 326.76C337.007 327.136 337.404 327.615 337.659 328.195C337.914 328.776 338.041 329.372 338.041 329.983V330.762ZM336.101 329.265C336.009 328.837 335.826 328.486 335.551 328.211C335.286 327.936 334.92 327.798 334.451 327.798C334.044 327.798 333.693 327.926 333.397 328.18C333.102 328.425 332.893 328.786 332.771 329.265H336.101ZM342.83 334.122C341.944 334.122 341.252 333.883 340.753 333.404C340.254 332.926 340.004 332.218 340.004 331.281V327.921H338.813V326.301H340.004V324.377L341.899 323.185V326.301H343.93V327.921H341.899V331.25C341.899 331.709 341.98 332.035 342.143 332.228C342.316 332.411 342.571 332.503 342.907 332.503C343.161 332.503 343.406 332.442 343.64 332.32L344.083 333.847C343.686 334.031 343.268 334.122 342.83 334.122ZM351.081 326.301V327.554C351.356 327.116 351.692 326.78 352.089 326.546C352.487 326.301 352.909 326.179 353.357 326.179C353.642 326.179 353.953 326.23 354.289 326.332L353.938 328.089C353.704 327.946 353.439 327.875 353.143 327.875C352.543 327.875 352.049 328.15 351.662 328.7C351.275 329.239 351.081 330.095 351.081 331.266V334H349.187V326.301H351.081ZM362.057 330.762H356.742C356.823 331.332 357.022 331.765 357.337 332.06C357.663 332.355 358.076 332.503 358.575 332.503C359.002 332.503 359.359 332.406 359.644 332.213C359.939 332.019 360.204 331.719 360.438 331.312L361.966 331.877C361.65 332.6 361.207 333.155 360.637 333.542C360.077 333.929 359.354 334.122 358.468 334.122C357.633 334.122 356.935 333.929 356.375 333.542C355.825 333.145 355.418 332.646 355.153 332.045C354.898 331.434 354.771 330.802 354.771 330.151C354.771 329.499 354.898 328.873 355.153 328.272C355.418 327.661 355.825 327.162 356.375 326.775C356.935 326.378 357.633 326.179 358.468 326.179C359.272 326.179 359.944 326.373 360.484 326.76C361.024 327.136 361.421 327.615 361.675 328.195C361.93 328.776 362.057 329.372 362.057 329.983V330.762ZM360.117 329.265C360.026 328.837 359.842 328.486 359.567 328.211C359.303 327.936 358.936 327.798 358.468 327.798C358.06 327.798 357.709 327.926 357.414 328.18C357.118 328.425 356.91 328.786 356.787 329.265H360.117ZM365.655 326.301V326.637V327.096C365.777 326.872 366.007 326.663 366.343 326.469C366.689 326.276 367.081 326.179 367.519 326.179C368.649 326.179 369.515 326.541 370.116 327.264C370.727 327.977 371.032 328.939 371.032 330.151C371.032 331.363 370.727 332.33 370.116 333.053C369.515 333.766 368.649 334.122 367.519 334.122C367.142 334.122 366.78 334.041 366.434 333.878C366.088 333.715 365.828 333.521 365.655 333.297V333.756V337.116H363.761V326.301H365.655ZM367.259 332.503C367.778 332.503 368.206 332.294 368.542 331.877C368.878 331.459 369.046 330.884 369.046 330.151C369.046 329.407 368.878 328.832 368.542 328.425C368.206 328.007 367.778 327.798 367.259 327.798C366.74 327.798 366.312 328.007 365.976 328.425C365.65 328.832 365.487 329.407 365.487 330.151C365.487 330.894 365.65 331.475 365.976 331.892C366.312 332.299 366.74 332.503 367.259 332.503ZM376.224 334.122C375.419 334.122 374.722 333.949 374.131 333.603C373.541 333.257 373.087 332.783 372.772 332.182C372.466 331.581 372.313 330.904 372.313 330.151C372.313 329.397 372.466 328.72 372.772 328.119C373.087 327.518 373.541 327.045 374.131 326.699C374.722 326.352 375.419 326.179 376.224 326.179C377.028 326.179 377.726 326.352 378.317 326.699C378.907 327.045 379.355 327.518 379.661 328.119C379.976 328.72 380.134 329.397 380.134 330.151C380.134 330.904 379.976 331.581 379.661 332.182C379.355 332.783 378.907 333.257 378.317 333.603C377.726 333.949 377.028 334.122 376.224 334.122ZM376.224 332.503C376.814 332.503 377.283 332.279 377.629 331.831C377.975 331.373 378.148 330.813 378.148 330.151C378.148 329.489 377.975 328.934 377.629 328.486C377.283 328.027 376.814 327.798 376.224 327.798C375.633 327.798 375.165 328.027 374.819 328.486C374.472 328.934 374.299 329.489 374.299 330.151C374.299 330.813 374.472 331.373 374.819 331.831C375.165 332.279 375.633 332.503 376.224 332.503ZM383.735 326.301V327.554C384.01 327.116 384.346 326.78 384.743 326.546C385.14 326.301 385.563 326.179 386.011 326.179C386.296 326.179 386.606 326.23 386.942 326.332L386.591 328.089C386.357 327.946 386.092 327.875 385.797 327.875C385.196 327.875 384.702 328.15 384.315 328.7C383.928 329.239 383.735 330.095 383.735 331.266V334H381.841V326.301H383.735ZM391.758 334.122C390.872 334.122 390.18 333.883 389.681 333.404C389.182 332.926 388.932 332.218 388.932 331.281V327.921H387.741V326.301H388.932V324.377L390.826 323.185V326.301H392.858V327.921H390.826V331.25C390.826 331.709 390.908 332.035 391.071 332.228C391.244 332.411 391.498 332.503 391.834 332.503C392.089 332.503 392.333 332.442 392.568 332.32L393.011 333.847C392.613 334.031 392.196 334.122 391.758 334.122Z" fill="#10162F"/>
<path d="M236.118 381.033H3.60521C2.16989 381.033 1 379.863 1 378.427V291.197C1 289.762 2.16989 288.592 3.60521 288.592H236.118C237.553 288.592 238.723 289.762 238.723 291.197V378.427C238.723 379.873 237.553 381.033 236.118 381.033Z" fill="white" stroke="#10162F"/>
<path d="M136.943 337.422H81.624C79.0089 337.422 76.8953 335.309 76.8953 332.694V331.229C76.8953 328.614 79.0089 326.5 81.624 326.5H136.943C139.558 326.5 141.672 328.614 141.672 331.229V332.694C141.672 335.299 139.558 337.422 136.943 337.422Z" fill="#FFD300" stroke="#10162F" stroke-linejoin="round"/>
<path d="M200.579 356.357H129.353C126.738 356.357 124.625 354.243 124.625 351.628V350.163C124.625 347.548 126.738 345.435 129.353 345.435H200.579C203.194 345.435 205.307 347.548 205.307 350.163V351.628C205.307 354.233 203.194 356.357 200.579 356.357Z" fill="#FFD300" stroke="#10162F" stroke-linejoin="round"/>
<path d="M115.974 356.357H81.6142C78.9992 356.357 76.8855 354.243 76.8855 351.628V350.163C76.8855 347.548 78.9992 345.435 81.6142 345.435H115.974C118.589 345.435 120.702 347.548 120.702 350.163V351.628C120.702 354.233 118.589 356.357 115.974 356.357Z" fill="#FFD300" stroke="#10162F" stroke-linejoin="round"/>
<path d="M176.06 337.422H151.257C148.642 337.422 146.528 335.309 146.528 332.694V331.229C146.528 328.614 148.642 326.5 151.257 326.5H176.06C178.675 326.5 180.789 328.614 180.789 331.229V332.694C180.789 335.299 178.675 337.422 176.06 337.422Z" fill="#FFD300" stroke="#10162F" stroke-linejoin="round"/>
<path d="M214.421 337.422H189.617C187.002 337.422 184.889 335.309 184.889 332.694V331.229C184.889 328.614 187.002 326.5 189.617 326.5H214.421C217.036 326.5 219.15 328.614 219.15 331.229V332.694C219.15 335.299 217.036 337.422 214.421 337.422Z" fill="#FFD300" stroke="#10162F" stroke-linejoin="round"/>
<path d="M238.723 306.327H1V291.168C1 289.732 2.16989 288.562 3.60521 288.562H236.118C237.553 288.562 238.723 289.732 238.723 291.168V306.327Z" fill="#FFD300" stroke="#10162F"/>
<path d="M41.3464 365.923C54.0895 365.923 64.4197 355.593 64.4197 342.85C64.4197 330.107 54.0895 319.776 41.3464 319.776C28.6034 319.776 18.2731 330.107 18.2731 342.85C18.2731 355.593 28.6034 365.923 41.3464 365.923Z" fill="#FFFAE5" stroke="#10162F" stroke-linecap="round" stroke-linejoin="round"/>
<path d="M37.7677 355.768L27.9761 345.976L32.5671 341.385L37.7677 346.586L52.1308 332.232L56.7219 336.814L37.7677 355.768Z" fill="#FFD300" stroke="#10162F" stroke-linejoin="round"/>
</svg>
