<svg width="449" height="445" viewBox="0 0 449 445" fill="none" xmlns="http://www.w3.org/2000/svg">
<path d="M-3.69032 436.69H-183.64C-185.573 436.69 -187.138 435.177 -187.138 433.309V246.596C-187.138 244.729 -185.573 243.216 -183.64 243.216H-3.69907C-1.76619 243.216 -0.200653 244.729 -0.200653 246.596V433.309C-0.19191 435.177 -1.75745 436.69 -3.69032 436.69Z" fill="white" stroke="#10162F" stroke-miterlimit="10" stroke-linejoin="round"/>
<path d="M-0.191925 271.342H-187.138V246.748C-187.138 244.88 -185.573 243.367 -183.64 243.367H-3.6991C-1.76622 243.367 -0.200684 244.88 -0.200684 246.748V271.342H-0.191925Z" fill="#EBFDC6" stroke="#10162F" stroke-miterlimit="10" stroke-linejoin="round"/>
<path d="M14.9652 421.536H-164.984C-166.917 421.536 -168.483 420.023 -168.483 418.156V231.443C-168.483 229.575 -166.917 228.062 -164.984 228.062H14.9565C16.8893 228.062 18.4549 229.575 18.4549 231.443V418.156C18.4636 420.023 16.8981 421.536 14.9652 421.536Z" fill="white" stroke="#10162F" stroke-miterlimit="10" stroke-linejoin="round"/>
<path d="M18.4641 256.191H-168.482V231.596C-168.482 229.729 -166.917 228.216 -164.984 228.216H14.9569C16.8898 228.216 18.4553 229.729 18.4553 231.596V256.191H18.4641Z" fill="#EBFDC6" stroke="#10162F" stroke-miterlimit="10" stroke-linejoin="round"/>
<path d="M33.62 406.382H-146.33C-148.263 406.382 -149.828 404.869 -149.828 403.001V216.289C-149.828 214.421 -148.263 212.908 -146.33 212.908H33.6113C35.5441 212.908 37.1097 214.421 37.1097 216.289V403.001C37.1184 404.869 35.5529 406.382 33.62 406.382Z" fill="white" stroke="#10162F" stroke-miterlimit="10" stroke-linejoin="round"/>
<path d="M37.1184 241.035H-149.828V216.441C-149.828 214.573 -148.263 213.061 -146.33 213.061H33.6112C35.5441 213.061 37.1096 214.573 37.1096 216.441V241.035H37.1184Z" fill="#EBFDC6" stroke="#10162F" stroke-miterlimit="10" stroke-linejoin="round"/>
<path d="M52.2755 391.229H-127.665C-129.598 391.229 -131.164 389.716 -131.164 387.848V201.136C-131.164 199.268 -129.598 197.755 -127.665 197.755H52.2755C54.2084 197.755 55.7739 199.268 55.7739 201.136V387.848C55.7739 389.716 54.2084 391.229 52.2755 391.229Z" fill="white" stroke="#10162F" stroke-miterlimit="10" stroke-linejoin="round"/>
<path d="M55.7742 225.882H-131.164V201.288C-131.164 199.42 -129.598 197.907 -127.665 197.907H52.2758C54.2086 197.907 55.7742 199.42 55.7742 201.288V225.882Z" fill="#EBFDC6" stroke="#10162F" stroke-miterlimit="10" stroke-linejoin="round"/>
<path d="M70.931 376.074H-109.01C-110.943 376.074 -112.508 374.561 -112.508 372.694V185.981C-112.508 184.113 -110.943 182.601 -109.01 182.601H70.931C72.8639 182.601 74.4295 184.113 74.4295 185.981V372.694C74.4295 374.561 72.8639 376.074 70.931 376.074Z" fill="white" stroke="#10162F" stroke-miterlimit="10" stroke-linejoin="round"/>
<path d="M74.4295 210.727H-112.508V186.133C-112.508 184.265 -110.943 182.752 -109.01 182.752H70.931C72.8639 182.752 74.4295 184.265 74.4295 186.133V210.727Z" fill="#EBFDC6" stroke="#10162F" stroke-miterlimit="10" stroke-linejoin="round"/>
<path d="M89.5863 360.921H-90.3546C-92.2875 360.921 -93.853 359.408 -93.853 357.54V170.828C-93.853 168.96 -92.2875 167.447 -90.3546 167.447H89.5863C91.5192 167.447 93.0847 168.96 93.0847 170.828V357.54C93.0847 359.408 91.5192 360.921 89.5863 360.921Z" fill="white" stroke="#10162F" stroke-miterlimit="10" stroke-linejoin="round"/>
<path d="M93.0847 195.574H-93.853V170.98C-93.853 169.112 -92.2875 167.6 -90.3546 167.6H89.5863C91.5192 167.6 93.0847 169.112 93.0847 170.98V195.574Z" fill="#EBFDC6" stroke="#10162F" stroke-miterlimit="10" stroke-linejoin="round"/>
<path d="M108.242 345.768H-71.6993C-73.6322 345.768 -75.1978 344.255 -75.1978 342.387V155.675C-75.1978 153.807 -73.6322 152.294 -71.6993 152.294H108.242C110.174 152.294 111.74 153.807 111.74 155.675V342.387C111.74 344.255 110.174 345.768 108.242 345.768Z" fill="white" stroke="#10162F" stroke-miterlimit="10" stroke-linejoin="round"/>
<path d="M111.74 180.42H-75.1978V155.826C-75.1978 153.958 -73.6322 152.445 -71.6993 152.445H108.242C110.174 152.445 111.74 153.958 111.74 155.826V180.42Z" fill="#EBFDC6" stroke="#10162F" stroke-miterlimit="10" stroke-linejoin="round"/>
<path d="M126.897 330.613H-53.0441C-54.9769 330.613 -56.5425 329.101 -56.5425 327.233V140.52C-56.5425 138.652 -54.9769 137.14 -53.0441 137.14H126.897C128.83 137.14 130.395 138.652 130.395 140.52V327.233C130.395 329.101 128.83 330.613 126.897 330.613Z" fill="white" stroke="#10162F" stroke-miterlimit="10" stroke-linejoin="round"/>
<path d="M130.396 165.266H-56.5422V140.664C-56.5422 138.796 -54.9767 137.283 -53.0438 137.283H126.897C128.83 137.283 130.396 138.796 130.396 140.664V165.266Z" fill="#EBFDC6" stroke="#10162F" stroke-miterlimit="10" stroke-linejoin="round"/>
<path d="M126.897 330.613H-53.0441C-54.9769 330.613 -56.5425 329.101 -56.5425 327.233V140.52C-56.5425 138.652 -54.9769 137.14 -53.0441 137.14H126.897C128.83 137.14 130.395 138.652 130.395 140.52V327.233C130.395 329.101 128.83 330.613 126.897 330.613Z" fill="white" stroke="#10162F" stroke-miterlimit="10" stroke-linejoin="round"/>
<path d="M130.396 165.266H-56.5422V140.664C-56.5422 138.796 -54.9767 137.283 -53.0438 137.283H126.897C128.83 137.283 130.396 138.796 130.396 140.664V165.266Z" fill="#EBFDC6" stroke="#10162F" stroke-miterlimit="10" stroke-linejoin="round"/>
<path d="M150.695 346.806H-29.2548C-31.1876 346.806 -32.7532 345.293 -32.7532 343.425V156.721C-32.7532 154.854 -31.1876 153.341 -29.2548 153.341H150.686C152.619 153.341 154.185 154.854 154.185 156.721V343.434C154.193 345.293 152.628 346.806 150.695 346.806Z" fill="white" stroke="#10162F" stroke-miterlimit="10" stroke-linejoin="round"/>
<path d="M154.193 181.461H-32.7532V156.867C-32.7532 154.999 -31.1876 153.486 -29.2548 153.486H150.686C152.619 153.486 154.185 154.999 154.185 156.867V181.461H154.193Z" fill="#EBFDC6" stroke="#10162F" stroke-miterlimit="10" stroke-linejoin="round"/>
<path d="M174.484 363.009H-5.45715C-7.39003 363.009 -8.95557 361.496 -8.95557 359.628V172.916C-8.95557 171.048 -7.39003 169.535 -5.45715 169.535H174.484C176.417 169.535 177.982 171.048 177.982 172.916V359.628C177.982 361.496 176.417 363.009 174.484 363.009Z" fill="white" stroke="#10162F" stroke-miterlimit="10" stroke-linejoin="round"/>
<path d="M177.982 197.662H-8.95557V173.068C-8.95557 171.2 -7.39003 169.688 -5.45715 169.688H174.484C176.417 169.688 177.982 171.2 177.982 173.068V197.662Z" fill="#EBFDC6" stroke="#10162F" stroke-miterlimit="10" stroke-linejoin="round"/>
<path d="M198.282 379.21H18.3324C16.3995 379.21 14.834 377.697 14.834 375.829V189.117C14.834 187.249 16.3995 185.736 18.3324 185.736H198.273C200.206 185.736 201.772 187.249 201.772 189.117V375.829C201.781 377.697 200.215 379.21 198.282 379.21Z" fill="white" stroke="#10162F" stroke-miterlimit="10" stroke-linejoin="round"/>
<path d="M201.781 213.864H14.8342V189.27C14.8342 187.402 16.3998 185.89 18.3326 185.89H198.274C200.206 185.89 201.772 187.402 201.772 189.27V213.864H201.781Z" fill="#EBFDC6" stroke="#10162F" stroke-miterlimit="10" stroke-linejoin="round"/>
<path d="M222.071 395.403H42.1303C40.1974 395.403 38.6318 393.89 38.6318 392.022V205.318C38.6318 203.45 40.1974 201.938 42.1303 201.938H222.071C224.004 201.938 225.57 203.45 225.57 205.318V392.031C225.57 393.89 224.004 395.403 222.071 395.403Z" fill="white" stroke="#10162F" stroke-miterlimit="10" stroke-linejoin="round"/>
<path d="M225.57 230.056H38.6318V205.462C38.6318 203.594 40.1974 202.081 42.1303 202.081H222.071C224.004 202.081 225.57 203.594 225.57 205.462V230.056Z" fill="#EBFDC6" stroke="#10162F" stroke-miterlimit="10" stroke-linejoin="round"/>
<path d="M245.869 411.606H65.9196C63.9867 411.606 62.4211 410.093 62.4211 408.225V221.521C62.4211 219.653 63.9867 218.141 65.9196 218.141H245.861C247.793 218.141 249.359 219.653 249.359 221.521V408.234C249.368 410.093 247.802 411.606 245.869 411.606Z" fill="white" stroke="#10162F" stroke-miterlimit="10" stroke-linejoin="round"/>
<path d="M249.368 246.258H62.4211V221.664C62.4211 219.796 63.9867 218.283 65.9196 218.283H245.86C247.793 218.283 249.359 219.796 249.359 221.664V246.258H249.368Z" fill="#EBFDC6" stroke="#10162F" stroke-miterlimit="10" stroke-linejoin="round"/>
<path d="M269.658 427.807H89.7174C87.7845 427.807 86.219 426.294 86.219 424.426V237.714C86.219 235.846 87.7845 234.333 89.7174 234.333H269.658C271.591 234.333 273.157 235.846 273.157 237.714V424.426C273.157 426.294 271.591 427.807 269.658 427.807Z" fill="white" stroke="#10162F" stroke-miterlimit="10" stroke-linejoin="round"/>
<path d="M273.157 262.459H86.219V237.856C86.219 235.988 87.7845 234.476 89.7174 234.476H269.658C271.591 234.476 273.157 235.988 273.157 237.856V262.459Z" fill="#EBFDC6" stroke="#10162F" stroke-miterlimit="10" stroke-linejoin="round"/>
<path d="M293.456 444H113.507C111.574 444 110.008 442.488 110.008 440.62V253.916C110.008 252.048 111.574 250.535 113.507 250.535H293.448C295.381 250.535 296.946 252.048 296.946 253.916V440.628C296.955 442.488 295.389 444 293.456 444Z" fill="white" stroke="#10162F" stroke-miterlimit="10" stroke-linejoin="round"/>
<path d="M296.955 278.653H110.008V254.059C110.008 252.192 111.574 250.679 113.507 250.679H293.448C295.381 250.679 296.946 252.192 296.946 254.059V278.653H296.955Z" fill="#EBFDC6" stroke="#10162F" stroke-miterlimit="10" stroke-linejoin="round"/>
<path d="M293.456 444H113.507C111.574 444 110.008 442.488 110.008 440.62V253.916C110.008 252.048 111.574 250.535 113.507 250.535H293.448C295.381 250.535 296.946 252.048 296.946 253.916V440.628C296.955 442.488 295.389 444 293.456 444Z" fill="white" stroke="#10162F" stroke-miterlimit="10" stroke-linejoin="round"/>
<path d="M296.955 278.653H110.008V254.059C110.008 252.192 111.574 250.679 113.507 250.679H293.448C295.381 250.679 296.946 252.192 296.946 254.059V278.653H296.955Z" fill="#EBFDC6" stroke="#10162F" stroke-miterlimit="10" stroke-linejoin="round"/>
<path d="M312.916 427.807H132.975C131.043 427.807 129.477 426.294 129.477 424.426V237.714C129.477 235.846 131.043 234.333 132.975 234.333H312.916C314.849 234.333 316.415 235.846 316.415 237.714V424.426C316.415 426.294 314.849 427.807 312.916 427.807Z" fill="white" stroke="#10162F" stroke-miterlimit="10" stroke-linejoin="round"/>
<path d="M316.415 262.459H129.477V237.856C129.477 235.988 131.043 234.476 132.975 234.476H312.916C314.849 234.476 316.415 235.988 316.415 237.856V262.459Z" fill="#EBFDC6" stroke="#10162F" stroke-miterlimit="10" stroke-linejoin="round"/>
<path d="M332.385 411.606H152.444C150.511 411.606 148.945 410.093 148.945 408.225V221.521C148.945 219.653 150.511 218.141 152.444 218.141H332.385C334.318 218.141 335.883 219.653 335.883 221.521V408.234C335.883 410.093 334.318 411.606 332.385 411.606Z" fill="white" stroke="#10162F" stroke-miterlimit="10" stroke-linejoin="round"/>
<path d="M335.883 246.258H148.945V221.664C148.945 219.796 150.511 218.283 152.444 218.283H332.385C334.318 218.283 335.883 219.796 335.883 221.664V246.258Z" fill="#EBFDC6" stroke="#10162F" stroke-miterlimit="10" stroke-linejoin="round"/>
<path d="M351.854 395.403H171.913C169.98 395.403 168.414 393.89 168.414 392.022V205.318C168.414 203.45 169.98 201.938 171.913 201.938H351.854C353.786 201.938 355.352 203.45 355.352 205.318V392.031C355.352 393.89 353.786 395.403 351.854 395.403Z" fill="white" stroke="#10162F" stroke-miterlimit="10" stroke-linejoin="round"/>
<path d="M355.352 230.056H168.414V205.462C168.414 203.594 169.98 202.081 171.913 202.081H351.854C353.786 202.081 355.352 203.594 355.352 205.462V230.056Z" fill="#EBFDC6" stroke="#10162F" stroke-miterlimit="10" stroke-linejoin="round"/>
<path d="M371.322 379.21H191.381C189.449 379.21 187.883 377.697 187.883 375.829V189.117C187.883 187.249 189.449 185.736 191.381 185.736H371.322C373.255 185.736 374.821 187.249 374.821 189.117V375.829C374.821 377.697 373.255 379.21 371.322 379.21Z" fill="white" stroke="#10162F" stroke-miterlimit="10" stroke-linejoin="round"/>
<path d="M374.821 213.864H187.883V189.27C187.883 187.402 189.449 185.89 191.381 185.89H371.322C373.255 185.89 374.821 187.402 374.821 189.27V213.864Z" fill="#EBFDC6" stroke="#10162F" stroke-miterlimit="10" stroke-linejoin="round"/>
<path d="M390.791 363.009H210.841C208.908 363.009 207.343 361.496 207.343 359.628V172.916C207.343 171.048 208.908 169.535 210.841 169.535H390.782C392.715 169.535 394.281 171.048 394.281 172.916V359.628C394.289 361.496 392.724 363.009 390.791 363.009Z" fill="white" stroke="#10162F" stroke-miterlimit="10" stroke-linejoin="round"/>
<path d="M394.289 197.662H207.343V173.068C207.343 171.2 208.908 169.688 210.841 169.688H390.782C392.715 169.688 394.281 171.2 394.281 173.068V197.662H394.289Z" fill="#EBFDC6" stroke="#10162F" stroke-miterlimit="10" stroke-linejoin="round"/>
<path d="M410.26 346.806H230.31C228.377 346.806 226.812 345.293 226.812 343.425V156.721C226.812 154.854 228.377 153.341 230.31 153.341H410.251C412.184 153.341 413.749 154.854 413.749 156.721V343.434C413.758 345.293 412.193 346.806 410.26 346.806Z" fill="white" stroke="#10162F" stroke-miterlimit="10" stroke-linejoin="round"/>
<path d="M413.758 181.461H226.812V156.867C226.812 154.999 228.377 153.486 230.31 153.486H410.251C412.184 153.486 413.749 154.999 413.749 156.867V181.461H413.758Z" fill="#EBFDC6" stroke="#10162F" stroke-miterlimit="10" stroke-linejoin="round"/>
<path d="M429.72 330.613H249.779C247.846 330.613 246.28 329.101 246.28 327.233V140.52C246.28 138.652 247.846 137.14 249.779 137.14H429.72C431.653 137.14 433.218 138.652 433.218 140.52V327.233C433.218 329.101 431.653 330.613 429.72 330.613Z" fill="white" stroke="#10162F" stroke-miterlimit="10" stroke-linejoin="round"/>
<path d="M433.218 165.266H246.28V140.664C246.28 138.796 247.846 137.283 249.779 137.283H429.72C431.653 137.283 433.218 138.796 433.218 140.664V165.266Z" fill="#EBFDC6" stroke="#10162F" stroke-miterlimit="10" stroke-linejoin="round"/>
<path d="M444.859 314.902H264.918C262.985 314.902 261.419 313.39 261.419 311.522V124.809C261.419 122.942 262.985 121.429 264.918 121.429H444.859C446.792 121.429 448.357 122.942 448.357 124.809V311.522C448.357 313.39 446.792 314.902 444.859 314.902Z" fill="white" stroke="#10162F" stroke-miterlimit="10" stroke-linejoin="round"/>
<path d="M448.357 149.546H261.419V124.952C261.419 123.084 262.985 121.571 264.918 121.571H444.859C446.792 121.571 448.357 123.084 448.357 124.952V149.546Z" fill="#EBFDC6" stroke="#10162F" stroke-miterlimit="10" stroke-linejoin="round"/>
<path d="M275.212 282.346H432.772" stroke="#10162F" stroke-linecap="round" stroke-linejoin="round"/>
<path d="M376.797 183.081H279.935C278.009 183.081 276.482 181.574 276.482 179.761V169.205C276.482 167.385 278.016 165.885 279.935 165.885H376.797C378.723 165.885 380.25 167.392 380.25 169.205V179.761C380.25 181.582 378.724 183.081 376.797 183.081Z" stroke="#10162F"/>
<path d="M318.75 306.646H278.037C276.9 306.646 275.982 305.758 275.982 304.659V293.52C275.982 292.422 276.9 291.534 278.037 291.534H318.75C319.887 291.534 320.805 292.422 320.805 293.52V304.659C320.805 305.75 319.887 306.646 318.75 306.646Z" fill="white" stroke="#10162F" stroke-miterlimit="10" stroke-linejoin="round"/>
<path d="M275.982 197.036H428.093" stroke="#10162F" stroke-miterlimit="10" stroke-linejoin="round"/>
<path d="M275.982 211.175H428.093" stroke="#10162F" stroke-miterlimit="10" stroke-linejoin="round"/>
<path d="M275.982 225.307H399.423" stroke="#10162F" stroke-miterlimit="10" stroke-linejoin="round"/>
<path d="M333.111 143.2H276.393C276.165 143.2 275.982 143.022 275.982 142.803V129.035C275.982 128.815 276.165 128.638 276.393 128.638H333.111C333.338 128.638 333.522 128.815 333.522 129.035V142.803C333.522 143.022 333.338 143.2 333.111 143.2Z" fill="white" stroke="#10162F" stroke-miterlimit="10" stroke-linejoin="round"/>
<path d="M390.249 293.334H434.128" stroke="#10162F" stroke-miterlimit="10" stroke-linejoin="round"/>
<path d="M390.249 298.895H434.128" stroke="#10162F" stroke-miterlimit="10" stroke-linejoin="round"/>
<path d="M390.249 304.456H434.128" stroke="#10162F" stroke-miterlimit="10" stroke-linejoin="round"/>
</svg>
