<svg width="473" height="429" viewBox="0 0 473 429" fill="none" xmlns="http://www.w3.org/2000/svg">
<path d="M36.6657 421.335H-136.631C-138.492 421.335 -140 419.878 -140 418.08V238.27C-140 236.472 -138.492 235.015 -136.631 235.015H36.6573C38.5187 235.015 40.0263 236.472 40.0263 238.27V418.08C40.0347 419.878 38.5271 421.335 36.6657 421.335Z" fill="white" stroke="#10162F" stroke-miterlimit="10" stroke-linejoin="round"/>
<path d="M40.0347 262.104H-140V238.419C-140 236.62 -138.492 235.163 -136.631 235.163H36.6572C38.5187 235.163 40.0263 236.62 40.0263 238.419V262.104H40.0347Z" fill="#EBFDC6" stroke="#10162F" stroke-miterlimit="10" stroke-linejoin="round"/>
<path d="M54.6316 406.744H-118.665C-120.526 406.744 -122.034 405.288 -122.034 403.489V223.679C-122.034 221.881 -120.526 220.424 -118.665 220.424H54.6232C56.4846 220.424 57.9923 221.881 57.9923 223.679V403.489C58.0007 405.288 56.493 406.744 54.6316 406.744Z" fill="white" stroke="#10162F" stroke-miterlimit="10" stroke-linejoin="round"/>
<path d="M58.0011 247.514H-122.034V223.829C-122.034 222.03 -120.526 220.573 -118.665 220.573H54.6236C56.485 220.573 57.9926 222.03 57.9926 223.829V247.514H58.0011Z" fill="#EBFDC6" stroke="#10162F" stroke-miterlimit="10" stroke-linejoin="round"/>
<path d="M72.5966 392.152H-100.7C-102.561 392.152 -104.069 390.695 -104.069 388.896V209.087C-104.069 207.288 -102.561 205.831 -100.7 205.831H72.5882C74.4496 205.831 75.9572 207.288 75.9572 209.087V388.896C75.9657 390.695 74.458 392.152 72.5966 392.152Z" fill="white" stroke="#10162F" stroke-miterlimit="10" stroke-linejoin="round"/>
<path d="M75.9657 232.919H-104.069V209.234C-104.069 207.435 -102.561 205.979 -100.7 205.979H72.5882C74.4496 205.979 75.9572 207.435 75.9572 209.234V232.919H75.9657Z" fill="#EBFDC6" stroke="#10162F" stroke-miterlimit="10" stroke-linejoin="round"/>
<path d="M90.5629 377.558H-82.7253C-84.5867 377.558 -86.0944 376.101 -86.0944 374.302V194.493C-86.0944 192.694 -84.5867 191.237 -82.7253 191.237H90.5629C92.4243 191.237 93.932 192.694 93.932 194.493V374.302C93.932 376.101 92.4243 377.558 90.5629 377.558Z" fill="white" stroke="#10162F" stroke-miterlimit="10" stroke-linejoin="round"/>
<path d="M93.9318 218.325H-86.0945V194.64C-86.0945 192.842 -84.5869 191.385 -82.7255 191.385H90.5627C92.4241 191.385 93.9318 192.842 93.9318 194.64V218.325Z" fill="#EBFDC6" stroke="#10162F" stroke-miterlimit="10" stroke-linejoin="round"/>
<path d="M108.528 362.967H-64.7599C-66.6213 362.967 -68.129 361.51 -68.129 359.711V179.902C-68.129 178.103 -66.6213 176.646 -64.7599 176.646H108.528C110.39 176.646 111.897 178.103 111.897 179.902V359.711C111.897 361.51 110.39 362.967 108.528 362.967Z" fill="white" stroke="#10162F" stroke-miterlimit="10" stroke-linejoin="round"/>
<path d="M111.897 203.736H-68.129V180.052C-68.129 178.253 -66.6214 176.796 -64.76 176.796H108.528C110.39 176.796 111.897 178.253 111.897 180.052V203.736Z" fill="#EBFDC6" stroke="#10162F" stroke-miterlimit="10" stroke-linejoin="round"/>
<path d="M126.493 348.37H-46.7947C-48.6561 348.37 -50.1638 346.914 -50.1638 345.115V165.305C-50.1638 163.507 -48.6561 162.05 -46.7947 162.05H126.493C128.355 162.05 129.863 163.507 129.863 165.305V345.115C129.863 346.914 128.355 348.37 126.493 348.37Z" fill="white" stroke="#10162F" stroke-miterlimit="10" stroke-linejoin="round"/>
<path d="M129.863 189.139H-50.1638V165.454C-50.1638 163.655 -48.6561 162.198 -46.7947 162.198H126.493C128.355 162.198 129.863 163.655 129.863 165.454V189.139Z" fill="#EBFDC6" stroke="#10162F" stroke-miterlimit="10" stroke-linejoin="round"/>
<path d="M144.459 333.779H-28.8288C-30.6902 333.779 -32.1979 332.322 -32.1979 330.523V150.714C-32.1979 148.915 -30.6902 147.458 -28.8288 147.458H144.459C146.321 147.458 147.828 148.915 147.828 150.714V330.523C147.828 332.322 146.321 333.779 144.459 333.779Z" fill="white" stroke="#10162F" stroke-miterlimit="10" stroke-linejoin="round"/>
<path d="M147.828 174.546H-32.198V150.861C-32.198 149.062 -30.6903 147.605 -28.8289 147.605H144.459C146.321 147.605 147.828 149.062 147.828 150.861V174.546Z" fill="#EBFDC6" stroke="#10162F" stroke-miterlimit="10" stroke-linejoin="round"/>
<path d="M162.425 319.186H-10.8635C-12.7249 319.186 -14.2325 317.729 -14.2325 315.93V136.121C-14.2325 134.322 -12.7249 132.865 -10.8635 132.865H162.425C164.286 132.865 165.794 134.322 165.794 136.121V315.93C165.794 317.729 164.286 319.186 162.425 319.186Z" fill="white" stroke="#10162F" stroke-miterlimit="10" stroke-linejoin="round"/>
<path d="M165.794 159.953H-14.2325V136.26C-14.2325 134.461 -12.7248 133.004 -10.8634 133.004H162.425C164.286 133.004 165.794 134.461 165.794 136.26V159.953Z" fill="#EBFDC6" stroke="#10162F" stroke-miterlimit="10" stroke-linejoin="round"/>
<path d="M162.425 319.186H-10.8632C-12.7246 319.186 -14.2323 317.729 -14.2323 315.93V136.121C-14.2323 134.322 -12.7246 132.865 -10.8632 132.865H162.425C164.286 132.865 165.794 134.322 165.794 136.121V315.93C165.794 317.729 164.286 319.186 162.425 319.186Z" fill="white" stroke="#10162F" stroke-miterlimit="10" stroke-linejoin="round"/>
<path d="M165.794 159.953H-14.2323V136.26C-14.2323 134.461 -12.7246 133.004 -10.8632 133.004H162.425C164.286 133.004 165.794 134.461 165.794 136.26V159.953Z" fill="#EBFDC6" stroke="#10162F" stroke-miterlimit="10" stroke-linejoin="round"/>
<path d="M185.343 334.778H12.0464C10.185 334.778 8.67731 333.321 8.67731 331.523V151.721C8.67731 149.923 10.185 148.466 12.0464 148.466H185.335C187.196 148.466 188.704 149.923 188.704 151.721V331.531C188.712 333.321 187.204 334.778 185.343 334.778Z" fill="white" stroke="#10162F" stroke-miterlimit="10" stroke-linejoin="round"/>
<path d="M188.712 175.548H8.67731V151.863C8.67731 150.064 10.185 148.607 12.0464 148.607H185.335C187.196 148.607 188.704 150.064 188.704 151.863V175.548H188.712Z" fill="#EBFDC6" stroke="#10162F" stroke-miterlimit="10" stroke-linejoin="round"/>
<path d="M208.253 350.381H34.9643C33.1029 350.381 31.5953 348.924 31.5953 347.126V167.316C31.5953 165.517 33.1029 164.061 34.9643 164.061H208.253C210.114 164.061 211.622 165.517 211.622 167.316V347.126C211.622 348.924 210.114 350.381 208.253 350.381Z" fill="white" stroke="#10162F" stroke-miterlimit="10" stroke-linejoin="round"/>
<path d="M211.622 191.15H31.5953V167.466C31.5953 165.667 33.1029 164.21 34.9643 164.21H208.253C210.114 164.21 211.622 165.667 211.622 167.466V191.15Z" fill="#EBFDC6" stroke="#10162F" stroke-miterlimit="10" stroke-linejoin="round"/>
<path d="M231.171 365.985H57.8744C56.013 365.985 54.5053 364.528 54.5053 362.729V182.92C54.5053 181.121 56.013 179.664 57.8744 179.664H231.163C233.024 179.664 234.532 181.121 234.532 182.92V362.729C234.54 364.528 233.032 365.985 231.171 365.985Z" fill="white" stroke="#10162F" stroke-miterlimit="10" stroke-linejoin="round"/>
<path d="M234.54 206.754H54.5056V183.069C54.5056 181.27 56.0133 179.813 57.8747 179.813H231.163C233.024 179.813 234.532 181.27 234.532 183.069V206.754H234.54Z" fill="#EBFDC6" stroke="#10162F" stroke-miterlimit="10" stroke-linejoin="round"/>
<path d="M254.081 381.58H80.7924C78.9309 381.58 77.4233 380.123 77.4233 378.324V198.523C77.4233 196.724 78.9309 195.268 80.7924 195.268H254.081C255.942 195.268 257.45 196.724 257.45 198.523V378.333C257.45 380.123 255.942 381.58 254.081 381.58Z" fill="white" stroke="#10162F" stroke-miterlimit="10" stroke-linejoin="round"/>
<path d="M257.45 222.35H77.4233V198.665C77.4233 196.866 78.931 195.409 80.7924 195.409H254.081C255.942 195.409 257.45 196.866 257.45 198.665V222.35Z" fill="#EBFDC6" stroke="#10162F" stroke-miterlimit="10" stroke-linejoin="round"/>
<path d="M276.999 397.184H103.702C101.841 397.184 100.333 395.727 100.333 393.928V214.127C100.333 212.328 101.841 210.871 103.702 210.871H276.99C278.852 210.871 280.359 212.328 280.359 214.127V393.936C280.368 395.727 278.86 397.184 276.999 397.184Z" fill="white" stroke="#10162F" stroke-miterlimit="10" stroke-linejoin="round"/>
<path d="M280.368 237.948H100.333V214.263C100.333 212.465 101.841 211.008 103.702 211.008H276.99C278.852 211.008 280.359 212.465 280.359 214.263V237.948H280.368Z" fill="#EBFDC6" stroke="#10162F" stroke-miterlimit="10" stroke-linejoin="round"/>
<path d="M299.908 412.785H126.62C124.759 412.785 123.251 411.328 123.251 409.529V229.72C123.251 227.921 124.759 226.464 126.62 226.464H299.908C301.77 226.464 303.277 227.921 303.277 229.72V409.529C303.277 411.328 301.77 412.785 299.908 412.785Z" fill="white" stroke="#10162F" stroke-miterlimit="10" stroke-linejoin="round"/>
<path d="M303.277 253.552H123.251V229.859C123.251 228.06 124.759 226.604 126.62 226.604H299.908C301.77 226.604 303.277 228.06 303.277 229.859V253.552Z" fill="#EBFDC6" stroke="#10162F" stroke-miterlimit="10" stroke-linejoin="round"/>
<path d="M322.826 428.378H149.53C147.668 428.378 146.161 426.921 146.161 425.122V245.321C146.161 243.522 147.668 242.065 149.53 242.065H322.818C324.679 242.065 326.187 243.522 326.187 245.321V425.13C326.196 426.921 324.688 428.378 322.826 428.378Z" fill="white" stroke="#10162F" stroke-miterlimit="10" stroke-linejoin="round"/>
<path d="M326.196 269.145H146.161V245.46C146.161 243.661 147.669 242.204 149.53 242.204H322.818C324.68 242.204 326.187 243.661 326.187 245.46V269.145H326.196Z" fill="#EBFDC6" stroke="#10162F" stroke-miterlimit="10" stroke-linejoin="round"/>
<path d="M322.826 428.378H149.529C147.668 428.378 146.16 426.921 146.16 425.122V245.321C146.16 243.522 147.668 242.065 149.529 242.065H322.817C324.679 242.065 326.186 243.522 326.186 245.321V425.13C326.195 426.921 324.687 428.378 322.826 428.378Z" fill="white" stroke="#10162F" stroke-miterlimit="10" stroke-linejoin="round"/>
<path d="M326.195 269.145H146.16V245.46C146.16 243.661 147.668 242.204 149.529 242.204H322.817C324.679 242.204 326.186 243.661 326.186 245.46V269.145H326.195Z" fill="#EBFDC6" stroke="#10162F" stroke-miterlimit="10" stroke-linejoin="round"/>
<path d="M341.567 412.785H168.279C166.417 412.785 164.91 411.328 164.91 409.529V229.72C164.91 227.921 166.417 226.464 168.279 226.464H341.567C343.428 226.464 344.936 227.921 344.936 229.72V409.529C344.936 411.328 343.428 412.785 341.567 412.785Z" fill="white" stroke="#10162F" stroke-miterlimit="10" stroke-linejoin="round"/>
<path d="M344.936 253.552H164.91V229.859C164.91 228.06 166.417 226.604 168.279 226.604H341.567C343.428 226.604 344.936 228.06 344.936 229.859V253.552Z" fill="#EBFDC6" stroke="#10162F" stroke-miterlimit="10" stroke-linejoin="round"/>
<path d="M360.315 397.184H187.027C185.166 397.184 183.658 395.727 183.658 393.928V214.127C183.658 212.328 185.166 210.871 187.027 210.871H360.315C362.177 210.871 363.684 212.328 363.684 214.127V393.936C363.684 395.727 362.177 397.184 360.315 397.184Z" fill="white" stroke="#10162F" stroke-miterlimit="10" stroke-linejoin="round"/>
<path d="M363.685 237.948H183.658V214.263C183.658 212.465 185.166 211.008 187.027 211.008H360.315C362.177 211.008 363.685 212.465 363.685 214.263V237.948Z" fill="#EBFDC6" stroke="#10162F" stroke-miterlimit="10" stroke-linejoin="round"/>
<path d="M379.064 381.58H205.776C203.915 381.58 202.407 380.123 202.407 378.324V198.523C202.407 196.724 203.915 195.268 205.776 195.268H379.064C380.926 195.268 382.433 196.724 382.433 198.523V378.333C382.433 380.123 380.926 381.58 379.064 381.58Z" fill="white" stroke="#10162F" stroke-miterlimit="10" stroke-linejoin="round"/>
<path d="M382.433 222.35H202.407V198.665C202.407 196.866 203.915 195.409 205.776 195.409H379.064C380.926 195.409 382.433 196.866 382.433 198.665V222.35Z" fill="#EBFDC6" stroke="#10162F" stroke-miterlimit="10" stroke-linejoin="round"/>
<path d="M397.813 365.985H224.525C222.664 365.985 221.156 364.528 221.156 362.729V182.92C221.156 181.121 222.664 179.664 224.525 179.664H397.813C399.675 179.664 401.182 181.121 401.182 182.92V362.729C401.182 364.528 399.675 365.985 397.813 365.985Z" fill="white" stroke="#10162F" stroke-miterlimit="10" stroke-linejoin="round"/>
<path d="M401.182 206.754H221.156V183.069C221.156 181.27 222.664 179.813 224.525 179.813H397.813C399.675 179.813 401.182 181.27 401.182 183.069V206.754Z" fill="#EBFDC6" stroke="#10162F" stroke-miterlimit="10" stroke-linejoin="round"/>
<path d="M416.562 350.381H243.265C241.404 350.381 239.896 348.924 239.896 347.126V167.316C239.896 165.517 241.404 164.061 243.265 164.061H416.554C418.415 164.061 419.923 165.517 419.923 167.316V347.126C419.931 348.924 418.423 350.381 416.562 350.381Z" fill="white" stroke="#10162F" stroke-miterlimit="10" stroke-linejoin="round"/>
<path d="M419.931 191.15H239.896V167.466C239.896 165.667 241.404 164.21 243.265 164.21H416.554C418.415 164.21 419.923 165.667 419.923 167.466V191.15H419.931Z" fill="#EBFDC6" stroke="#10162F" stroke-miterlimit="10" stroke-linejoin="round"/>
<path d="M435.311 334.778H262.015C260.153 334.778 258.646 333.321 258.646 331.523V151.721C258.646 149.923 260.153 148.466 262.015 148.466H435.303C437.164 148.466 438.672 149.923 438.672 151.721V331.531C438.681 333.321 437.173 334.778 435.311 334.778Z" fill="white" stroke="#10162F" stroke-miterlimit="10" stroke-linejoin="round"/>
<path d="M438.681 175.548H258.646V151.863C258.646 150.064 260.153 148.607 262.015 148.607H435.303C437.164 148.607 438.672 150.064 438.672 151.863V175.548H438.681Z" fill="#EBFDC6" stroke="#10162F" stroke-miterlimit="10" stroke-linejoin="round"/>
<path d="M454.052 319.186H280.763C278.902 319.186 277.394 317.729 277.394 315.93V136.121C277.394 134.322 278.902 132.865 280.763 132.865H454.052C455.913 132.865 457.421 134.322 457.421 136.121V315.93C457.421 317.729 455.913 319.186 454.052 319.186Z" fill="white" stroke="#10162F" stroke-miterlimit="10" stroke-linejoin="round"/>
<path d="M457.42 159.953H277.394V136.26C277.394 134.461 278.902 133.004 280.763 133.004H454.051C455.913 133.004 457.42 134.461 457.42 136.26V159.953Z" fill="#EBFDC6" stroke="#10162F" stroke-miterlimit="10" stroke-linejoin="round"/>
<path d="M468.631 310.742H295.343C293.481 310.742 291.974 309.285 291.974 307.486V127.677C291.974 125.878 293.481 124.421 295.343 124.421H468.631C470.492 124.421 472 125.878 472 127.677V307.486C472 309.285 470.492 310.742 468.631 310.742Z" fill="white" stroke="#10162F" stroke-miterlimit="10" stroke-linejoin="round"/>
<path d="M472 151.5H291.974V127.815C291.974 126.016 293.481 124.56 295.343 124.56H468.631C470.492 124.56 472 126.016 472 127.815V151.5Z" fill="#EBFDC6" stroke="#10162F" stroke-miterlimit="10" stroke-linejoin="round"/>
<path d="M305.256 279.388H456.991" stroke="#10162F" stroke-linecap="round" stroke-linejoin="round"/>
<path d="M403.086 183.775H309.805C307.96 183.775 306.498 182.332 306.498 180.597V170.431C306.498 168.689 307.967 167.252 309.805 167.252H403.086C404.931 167.252 406.393 168.696 406.393 170.431V180.597C406.393 182.339 404.932 183.775 403.086 183.775Z" stroke="#10162F"/>
<path d="M347.184 302.783H307.977C306.882 302.783 305.997 301.929 305.997 300.871V290.143C305.997 289.085 306.882 288.23 307.977 288.23H347.184C348.279 288.23 349.164 289.085 349.164 290.143V300.871C349.164 301.92 348.279 302.783 347.184 302.783Z" fill="white" stroke="#10162F" stroke-miterlimit="10" stroke-linejoin="round"/>
<path d="M305.997 197.231H452.485" stroke="#10162F" stroke-miterlimit="10" stroke-linejoin="round"/>
<path d="M305.998 210.847H452.485" stroke="#10162F" stroke-miterlimit="10" stroke-linejoin="round"/>
<path d="M305.998 224.457H424.875" stroke="#10162F" stroke-miterlimit="10" stroke-linejoin="round"/>
<path d="M361.015 145.383H306.393C306.174 145.383 305.998 145.212 305.998 145.001V131.742C305.998 131.53 306.174 131.359 306.393 131.359H361.015C361.234 131.359 361.41 131.53 361.41 131.742V145.001C361.41 145.212 361.234 145.383 361.015 145.383Z" fill="white" stroke="#10162F" stroke-miterlimit="10" stroke-linejoin="round"/>
<path d="M416.04 289.972H458.297" stroke="#10162F" stroke-miterlimit="10" stroke-linejoin="round"/>
<path d="M416.04 295.327H458.297" stroke="#10162F" stroke-miterlimit="10" stroke-linejoin="round"/>
<path d="M416.04 300.683H458.297" stroke="#10162F" stroke-miterlimit="10" stroke-linejoin="round"/>
</svg>
