<svg width="705" height="504" viewBox="0 0 705 504" fill="none" xmlns="http://www.w3.org/2000/svg">
<path d="M200.378 494.373H-0.102447C-2.25584 494.373 -4 492.687 -4 490.606V282.592C-4 280.511 -2.25584 278.825 -0.102447 278.825H200.368C202.522 278.825 204.266 280.511 204.266 282.592V490.606C204.275 492.687 202.531 494.373 200.378 494.373Z" fill="white" stroke="#10162F" stroke-miterlimit="10" stroke-linejoin="round"/>
<path d="M204.276 310.162H-4V282.761C-4 280.681 -2.25584 278.995 -0.102447 278.995H200.368C202.522 278.995 204.266 280.681 204.266 282.761V310.162H204.276Z" fill="#EBFDC6" stroke="#10162F" stroke-miterlimit="10" stroke-linejoin="round"/>
<path d="M221.162 477.493H20.6815C18.5281 477.493 16.7839 475.807 16.7839 473.726V265.712C16.7839 263.631 18.5281 261.945 20.6815 261.945H221.152C223.306 261.945 225.05 263.631 225.05 265.712V473.726C225.059 475.807 223.315 477.493 221.162 477.493Z" fill="white" stroke="#10162F" stroke-miterlimit="10" stroke-linejoin="round"/>
<path d="M225.06 293.284H16.7844V265.884C16.7844 263.803 18.5286 262.117 20.682 262.117H221.153C223.306 262.117 225.05 263.803 225.05 265.884V293.284H225.06Z" fill="#EBFDC6" stroke="#10162F" stroke-miterlimit="10" stroke-linejoin="round"/>
<path d="M241.945 460.611H41.4648C39.3114 460.611 37.5673 458.925 37.5673 456.845V248.83C37.5673 246.749 39.3114 245.063 41.4648 245.063H241.935C244.089 245.063 245.833 246.749 245.833 248.83V456.845C245.843 458.925 244.099 460.611 241.945 460.611Z" fill="white" stroke="#10162F" stroke-miterlimit="10" stroke-linejoin="round"/>
<path d="M245.843 276.4H37.5673V249C37.5673 246.919 39.3114 245.233 41.4648 245.233H241.935C244.089 245.233 245.833 246.919 245.833 249V276.4H245.843Z" fill="#EBFDC6" stroke="#10162F" stroke-miterlimit="10" stroke-linejoin="round"/>
<path d="M262.73 443.727H62.2589C60.1055 443.727 58.3613 442.042 58.3613 439.961V231.946C58.3613 229.865 60.1055 228.18 62.2589 228.18H262.73C264.883 228.18 266.627 229.865 266.627 231.946V439.961C266.627 442.042 264.883 443.727 262.73 443.727Z" fill="white" stroke="#10162F" stroke-miterlimit="10" stroke-linejoin="round"/>
<path d="M266.627 259.517H58.3613V232.117C58.3613 230.036 60.1055 228.351 62.2589 228.351H262.73C264.883 228.351 266.627 230.036 266.627 232.117V259.517Z" fill="#EBFDC6" stroke="#10162F" stroke-miterlimit="10" stroke-linejoin="round"/>
<path d="M283.513 426.844H83.0425C80.8891 426.844 79.1449 425.159 79.1449 423.078V215.063C79.1449 212.982 80.8891 211.297 83.0425 211.297H283.513C285.667 211.297 287.411 212.982 287.411 215.063V423.078C287.411 425.159 285.667 426.844 283.513 426.844Z" fill="white" stroke="#10162F" stroke-miterlimit="10" stroke-linejoin="round"/>
<path d="M287.411 242.634H79.1449V215.234C79.1449 213.153 80.8891 211.468 83.0425 211.468H283.513C285.667 211.468 287.411 213.153 287.411 215.234V242.634Z" fill="#EBFDC6" stroke="#10162F" stroke-miterlimit="10" stroke-linejoin="round"/>
<path d="M304.296 409.96H103.826C101.672 409.96 99.9282 408.275 99.9282 406.194V198.179C99.9282 196.099 101.672 194.413 103.826 194.413H304.296C306.45 194.413 308.194 196.099 308.194 198.179V406.194C308.194 408.275 306.45 409.96 304.296 409.96Z" fill="white" stroke="#10162F" stroke-miterlimit="10" stroke-linejoin="round"/>
<path d="M308.194 225.751H99.9282V198.351C99.9282 196.27 101.672 194.585 103.826 194.585H304.296C306.45 194.585 308.194 196.27 308.194 198.351V225.751Z" fill="#EBFDC6" stroke="#10162F" stroke-miterlimit="10" stroke-linejoin="round"/>
<path d="M325.08 393.081H124.61C122.456 393.081 120.712 391.395 120.712 389.314V181.3C120.712 179.219 122.456 177.533 124.61 177.533H325.08C327.234 177.533 328.978 179.219 328.978 181.3V389.314C328.978 391.395 327.234 393.081 325.08 393.081Z" fill="white" stroke="#10162F" stroke-miterlimit="10" stroke-linejoin="round"/>
<path d="M328.978 208.869H120.712V181.468C120.712 179.388 122.456 177.702 124.61 177.702H325.08C327.234 177.702 328.978 179.388 328.978 181.468V208.869Z" fill="#EBFDC6" stroke="#10162F" stroke-miterlimit="10" stroke-linejoin="round"/>
<path d="M345.864 376.201H145.393C143.24 376.201 141.496 374.515 141.496 372.434V164.42C141.496 162.339 143.24 160.653 145.393 160.653H345.864C348.017 160.653 349.761 162.339 349.761 164.42V372.434C349.761 374.515 348.017 376.201 345.864 376.201Z" fill="white" stroke="#10162F" stroke-miterlimit="10" stroke-linejoin="round"/>
<path d="M349.761 191.989H141.496V164.58C141.496 162.499 143.24 160.813 145.393 160.813H345.864C348.017 160.813 349.761 162.499 349.761 164.58V191.989Z" fill="#EBFDC6" stroke="#10162F" stroke-miterlimit="10" stroke-linejoin="round"/>
<path d="M345.864 376.201H145.393C143.24 376.201 141.496 374.515 141.496 372.434V164.42C141.496 162.339 143.24 160.653 145.393 160.653H345.864C348.017 160.653 349.762 162.339 349.762 164.42V372.434C349.762 374.515 348.017 376.201 345.864 376.201Z" fill="white" stroke="#10162F" stroke-miterlimit="10" stroke-linejoin="round"/>
<path d="M349.762 191.989H141.496V164.58C141.496 162.499 143.24 160.813 145.394 160.813H345.864C348.018 160.813 349.762 162.499 349.762 164.58V191.989Z" fill="#EBFDC6" stroke="#10162F" stroke-miterlimit="10" stroke-linejoin="round"/>
<path d="M372.377 394.239H171.897C169.744 394.239 167.999 392.554 167.999 390.473V182.468C167.999 180.387 169.744 178.701 171.897 178.701H372.368C374.521 178.701 376.265 180.387 376.265 182.468V390.482C376.275 392.554 374.531 394.239 372.377 394.239Z" fill="white" stroke="#10162F" stroke-miterlimit="10" stroke-linejoin="round"/>
<path d="M376.275 210.03H167.999V182.63C167.999 180.549 169.744 178.863 171.897 178.863H372.368C374.521 178.863 376.265 180.549 376.265 182.63V210.03H376.275Z" fill="#EBFDC6" stroke="#10162F" stroke-miterlimit="10" stroke-linejoin="round"/>
<path d="M398.88 412.287H198.41C196.256 412.287 194.512 410.601 194.512 408.52V200.506C194.512 198.425 196.256 196.739 198.41 196.739H398.88C401.034 196.739 402.778 198.425 402.778 200.506V408.52C402.778 410.601 401.034 412.287 398.88 412.287Z" fill="white" stroke="#10162F" stroke-miterlimit="10" stroke-linejoin="round"/>
<path d="M402.778 228.077H194.512V200.676C194.512 198.596 196.256 196.91 198.41 196.91H398.88C401.034 196.91 402.778 198.596 402.778 200.676V228.077Z" fill="#EBFDC6" stroke="#10162F" stroke-miterlimit="10" stroke-linejoin="round"/>
<path d="M425.394 430.336H224.914C222.76 430.336 221.016 428.651 221.016 426.57V218.555C221.016 216.474 222.76 214.789 224.914 214.789H425.384C427.538 214.789 429.282 216.474 429.282 218.555V426.57C429.291 428.651 427.547 430.336 425.394 430.336Z" fill="white" stroke="#10162F" stroke-miterlimit="10" stroke-linejoin="round"/>
<path d="M429.292 246.127H221.016V218.727C221.016 216.646 222.761 214.961 224.914 214.961H425.385C427.538 214.961 429.282 216.646 429.282 218.727V246.127H429.292Z" fill="#EBFDC6" stroke="#10162F" stroke-miterlimit="10" stroke-linejoin="round"/>
<path d="M451.897 448.379H251.426C249.273 448.379 247.529 446.693 247.529 444.612V236.607C247.529 234.526 249.273 232.841 251.426 232.841H451.897C454.051 232.841 455.795 234.526 455.795 236.607V444.622C455.795 446.693 454.051 448.379 451.897 448.379Z" fill="white" stroke="#10162F" stroke-miterlimit="10" stroke-linejoin="round"/>
<path d="M455.795 264.169H247.529V236.769C247.529 234.688 249.273 233.003 251.426 233.003H451.897C454.051 233.003 455.795 234.688 455.795 236.769V264.169Z" fill="#EBFDC6" stroke="#10162F" stroke-miterlimit="10" stroke-linejoin="round"/>
<path d="M478.41 466.432H277.93C275.777 466.432 274.032 464.746 274.032 462.665V254.66C274.032 252.579 275.777 250.894 277.93 250.894H478.401C480.554 250.894 482.298 252.579 482.298 254.66V462.675C482.308 464.746 480.564 466.432 478.41 466.432Z" fill="white" stroke="#10162F" stroke-miterlimit="10" stroke-linejoin="round"/>
<path d="M482.308 282.218H274.032V254.818C274.032 252.737 275.777 251.052 277.93 251.052H478.401C480.554 251.052 482.298 252.737 482.298 254.818V282.218H482.308Z" fill="#EBFDC6" stroke="#10162F" stroke-miterlimit="10" stroke-linejoin="round"/>
<path d="M504.914 484.48H304.443C302.29 484.48 300.545 482.795 300.545 480.714V272.699C300.545 270.618 302.29 268.933 304.443 268.933H504.914C507.067 268.933 508.811 270.618 508.811 272.699V480.714C508.811 482.795 507.067 484.48 504.914 484.48Z" fill="white" stroke="#10162F" stroke-miterlimit="10" stroke-linejoin="round"/>
<path d="M508.811 300.269H300.545V272.859C300.545 270.778 302.29 269.093 304.443 269.093H504.914C507.067 269.093 508.811 270.778 508.811 272.859V300.269Z" fill="#EBFDC6" stroke="#10162F" stroke-miterlimit="10" stroke-linejoin="round"/>
<path d="M531.427 502.519H330.946C328.793 502.519 327.049 500.834 327.049 498.753V290.748C327.049 288.667 328.793 286.981 330.946 286.981H531.417C533.57 286.981 535.315 288.667 535.315 290.748V498.762C535.324 500.834 533.58 502.519 531.427 502.519Z" fill="white" stroke="#10162F" stroke-miterlimit="10" stroke-linejoin="round"/>
<path d="M535.324 318.307H327.049V290.907C327.049 288.826 328.793 287.141 330.946 287.141H531.417C533.57 287.141 535.315 288.826 535.315 290.907V318.307H535.324Z" fill="#EBFDC6" stroke="#10162F" stroke-miterlimit="10" stroke-linejoin="round"/>
<path d="M531.426 502.519H330.946C328.792 502.519 327.048 500.834 327.048 498.753V290.748C327.048 288.667 328.792 286.981 330.946 286.981H531.416C533.57 286.981 535.314 288.667 535.314 290.748V498.762C535.324 500.834 533.579 502.519 531.426 502.519Z" fill="white" stroke="#10162F" stroke-miterlimit="10" stroke-linejoin="round"/>
<path d="M535.324 318.307H327.048V290.907C327.048 288.826 328.792 287.141 330.946 287.141H531.416C533.57 287.141 535.314 288.826 535.314 290.907V318.307H535.324Z" fill="#EBFDC6" stroke="#10162F" stroke-miterlimit="10" stroke-linejoin="round"/>
<path d="M553.107 484.48H352.636C350.483 484.48 348.739 482.795 348.739 480.714V272.699C348.739 270.618 350.483 268.933 352.636 268.933H553.107C555.26 268.933 557.004 270.618 557.004 272.699V480.714C557.004 482.795 555.26 484.48 553.107 484.48Z" fill="white" stroke="#10162F" stroke-miterlimit="10" stroke-linejoin="round"/>
<path d="M557.004 300.269H348.739V272.859C348.739 270.778 350.483 269.093 352.636 269.093H553.107C555.26 269.093 557.004 270.778 557.004 272.859V300.269Z" fill="#EBFDC6" stroke="#10162F" stroke-miterlimit="10" stroke-linejoin="round"/>
<path d="M574.796 466.432H374.326C372.172 466.432 370.428 464.746 370.428 462.665V254.66C370.428 252.579 372.172 250.894 374.326 250.894H574.796C576.95 250.894 578.694 252.579 578.694 254.66V462.675C578.694 464.746 576.95 466.432 574.796 466.432Z" fill="white" stroke="#10162F" stroke-miterlimit="10" stroke-linejoin="round"/>
<path d="M578.694 282.218H370.428V254.818C370.428 252.737 372.172 251.052 374.326 251.052H574.796C576.95 251.052 578.694 252.737 578.694 254.818V282.218Z" fill="#EBFDC6" stroke="#10162F" stroke-miterlimit="10" stroke-linejoin="round"/>
<path d="M596.486 448.379H396.016C393.862 448.379 392.118 446.693 392.118 444.612V236.607C392.118 234.526 393.862 232.841 396.016 232.841H596.486C598.64 232.841 600.384 234.526 600.384 236.607V444.622C600.384 446.693 598.64 448.379 596.486 448.379Z" fill="white" stroke="#10162F" stroke-miterlimit="10" stroke-linejoin="round"/>
<path d="M600.384 264.169H392.118V236.769C392.118 234.688 393.862 233.003 396.016 233.003H596.486C598.64 233.003 600.384 234.688 600.384 236.769V264.169Z" fill="#EBFDC6" stroke="#10162F" stroke-miterlimit="10" stroke-linejoin="round"/>
<path d="M618.176 430.336H417.706C415.552 430.336 413.808 428.651 413.808 426.57V218.555C413.808 216.474 415.552 214.789 417.706 214.789H618.176C620.33 214.789 622.074 216.474 622.074 218.555V426.57C622.074 428.651 620.33 430.336 618.176 430.336Z" fill="white" stroke="#10162F" stroke-miterlimit="10" stroke-linejoin="round"/>
<path d="M622.074 246.127H413.808V218.727C413.808 216.646 415.552 214.961 417.706 214.961H618.176C620.33 214.961 622.074 216.646 622.074 218.727V246.127Z" fill="#EBFDC6" stroke="#10162F" stroke-miterlimit="10" stroke-linejoin="round"/>
<path d="M639.866 412.287H439.385C437.232 412.287 435.488 410.601 435.488 408.52V200.506C435.488 198.425 437.232 196.739 439.385 196.739H639.856C642.01 196.739 643.754 198.425 643.754 200.506V408.52C643.763 410.601 642.019 412.287 639.866 412.287Z" fill="white" stroke="#10162F" stroke-miterlimit="10" stroke-linejoin="round"/>
<path d="M643.763 228.077H435.488V200.676C435.488 198.596 437.232 196.91 439.385 196.91H639.856C642.01 196.91 643.754 198.596 643.754 200.676V228.077H643.763Z" fill="#EBFDC6" stroke="#10162F" stroke-miterlimit="10" stroke-linejoin="round"/>
<path d="M661.557 394.239H461.076C458.923 394.239 457.179 392.554 457.179 390.473V182.468C457.179 180.387 458.923 178.701 461.076 178.701H661.547C663.7 178.701 665.444 180.387 665.444 182.468V390.482C665.454 392.554 663.71 394.239 661.557 394.239Z" fill="white" stroke="#10162F" stroke-miterlimit="10" stroke-linejoin="round"/>
<path d="M665.454 210.03H457.178V182.63C457.178 180.549 458.923 178.863 461.076 178.863H661.547C663.7 178.863 665.444 180.549 665.444 182.63V210.03H665.454Z" fill="#EBFDC6" stroke="#10162F" stroke-miterlimit="10" stroke-linejoin="round"/>
<path d="M683.236 376.201H482.765C480.612 376.201 478.868 374.515 478.868 372.434V164.42C478.868 162.339 480.612 160.653 482.765 160.653H683.236C685.39 160.653 687.134 162.339 687.134 164.42V372.434C687.134 374.515 685.39 376.201 683.236 376.201Z" fill="white" stroke="#10162F" stroke-miterlimit="10" stroke-linejoin="round"/>
<path d="M687.134 191.989H478.868V164.58C478.868 162.499 480.612 160.813 482.765 160.813H683.236C685.389 160.813 687.134 162.499 687.134 164.58V191.989Z" fill="#EBFDC6" stroke="#10162F" stroke-miterlimit="10" stroke-linejoin="round"/>
<path d="M700.102 366.426H499.632C497.478 366.426 495.734 364.741 495.734 362.66V154.645C495.734 152.564 497.478 150.879 499.632 150.879H700.102C702.256 150.879 704 152.564 704 154.645V362.66C704 364.741 702.256 366.426 700.102 366.426Z" fill="white" stroke="#10162F" stroke-miterlimit="10" stroke-linejoin="round"/>
<path d="M704 182.205H495.734V154.804C495.734 152.724 497.478 151.038 499.632 151.038H700.102C702.256 151.038 704 152.724 704 154.804V182.205Z" fill="#EBFDC6" stroke="#10162F" stroke-miterlimit="10" stroke-linejoin="round"/>
<path d="M511.101 330.156H686.637" stroke="#10162F" stroke-linecap="round" stroke-linejoin="round"/>
<path d="M624.276 219.623H516.362C514.187 219.623 512.458 217.92 512.458 215.867V204.107C512.458 202.045 514.195 200.351 516.362 200.351H624.276C626.451 200.351 628.18 202.053 628.18 204.107V215.867C628.18 217.929 626.452 219.623 624.276 219.623Z" stroke="#10162F"/>
<path d="M559.606 357.224H514.248C512.981 357.224 511.958 356.236 511.958 355.011V342.601C511.958 341.377 512.981 340.389 514.248 340.389H559.606C560.872 340.389 561.895 341.377 561.895 342.601V355.011C561.895 356.226 560.872 357.224 559.606 357.224Z" fill="white" stroke="#10162F" stroke-miterlimit="10" stroke-linejoin="round"/>
<path d="M511.958 235.112H681.424" stroke="#10162F" stroke-miterlimit="10" stroke-linejoin="round"/>
<path d="M511.958 250.864H681.424" stroke="#10162F" stroke-miterlimit="10" stroke-linejoin="round"/>
<path d="M511.958 266.609H649.483" stroke="#10162F" stroke-miterlimit="10" stroke-linejoin="round"/>
<path d="M575.605 175.132H512.416C512.163 175.132 511.958 174.934 511.958 174.689V159.351C511.958 159.106 512.163 158.908 512.416 158.908H575.605C575.859 158.908 576.063 159.106 576.063 159.351V174.689C576.063 174.934 575.859 175.132 575.605 175.132Z" fill="white" stroke="#10162F" stroke-miterlimit="10" stroke-linejoin="round"/>
<path d="M639.262 342.398H688.147" stroke="#10162F" stroke-miterlimit="10" stroke-linejoin="round"/>
<path d="M639.262 348.595H688.147" stroke="#10162F" stroke-miterlimit="10" stroke-linejoin="round"/>
<path d="M639.262 354.79H688.147" stroke="#10162F" stroke-miterlimit="10" stroke-linejoin="round"/>
</svg>
